<?xml version="1.0" encoding="UTF-8"?>
<!DOCTYPE svg PUBLIC "-//W3C//DTD SVG 1.1//EN" "http://www.w3.org/Graphics/SVG/1.1/DTD/svg11.dtd">
<svg xmlns="http://www.w3.org/2000/svg" version="1.1" width="500px" height="500px" style="shape-rendering:geometricPrecision; text-rendering:geometricPrecision; image-rendering:optimizeQuality; fill-rule:evenodd; clip-rule:evenodd" xmlns:xlink="http://www.w3.org/1999/xlink">
<g><path style="opacity:0.004" fill="#000000" d="M 24.5,-0.5 C 24.8333,-0.5 25.1667,-0.5 25.5,-0.5C 25.3147,0.170143 24.9813,0.170143 24.5,-0.5 Z"/></g>
<g><path style="opacity:1" fill="#fefdfb" d="M 380.5,41.5 C 375.991,43.1646 372.491,46.1646 370,50.5C 365.285,62.2719 365.618,73.9385 371,85.5C 372.715,88.7168 375.215,91.0502 378.5,92.5C 383.598,95.4088 388.931,96.0755 394.5,94.5C 403.949,92.5559 410.116,86.8892 413,77.5C 413.455,74.1464 413.955,70.8131 414.5,67.5C 459.887,107.922 486.72,158.589 495,219.5C 504.418,323.143 466.584,404.31 381.5,463C 348.149,483.283 312.149,495.45 273.5,499.5C 259.833,499.5 246.167,499.5 232.5,499.5C 181.183,494.513 135.849,475.513 96.5,442.5C 96.4701,441.503 96.9701,440.836 98,440.5C 103.549,441.913 109.049,441.746 114.5,440C 113.944,439.617 113.611,439.117 113.5,438.5C 125.862,431.297 133.362,420.63 136,406.5C 139.456,402.243 143.956,400.41 149.5,401C 152.054,398.937 154.72,397.103 157.5,395.5C 176.129,399.891 192.795,396.224 207.5,384.5C 219.185,374.314 227.519,361.814 232.5,347C 237.346,346.223 241.679,344.39 245.5,341.5C 247.516,342.178 249.516,342.844 251.5,343.5C 257.148,347.993 263.148,351.993 269.5,355.5C 283.4,366.392 296.734,378.059 309.5,390.5C 310.167,391.5 310.833,392.5 311.5,393.5C 314.144,396.48 316.811,399.48 319.5,402.5C 318.049,408.561 318.216,414.561 320,420.5C 322.365,424.214 325.698,426.214 330,426.5C 331.447,437.774 337.614,444.774 348.5,447.5C 350.398,450.146 353.065,451.48 356.5,451.5C 361.029,450.897 365.029,449.23 368.5,446.5C 383.622,434.547 396.455,420.547 407,404.5C 413.455,393.926 417.955,382.592 420.5,370.5C 421.973,367.983 422.64,365.15 422.5,362C 422.782,358.024 421.782,354.524 419.5,351.5C 418.189,346.856 415.189,343.856 410.5,342.5C 409.942,341.21 408.942,340.377 407.5,340C 400.22,338.965 393.22,339.965 386.5,343C 383.894,343.792 381.894,345.292 380.5,347.5C 374.187,351.648 369.02,356.981 365,363.5C 360.908,372.018 356.575,380.352 352,388.5C 350.37,387.287 348.536,386.454 346.5,386C 341.449,385.508 336.449,385.508 331.5,386C 319.223,373.548 306.223,362.048 292.5,351.5C 292.167,350.5 291.5,349.833 290.5,349.5C 293.5,348.833 296.5,348.167 299.5,347.5C 308.341,343.492 314.674,336.992 318.5,328C 325.409,329.157 332.409,329.491 339.5,329C 342.106,328.208 344.106,326.708 345.5,324.5C 346.674,323.486 347.34,322.153 347.5,320.5C 348.954,317.282 349.621,313.782 349.5,310C 348.46,295.228 346.46,280.728 343.5,266.5C 343.5,266.167 343.5,265.833 343.5,265.5C 342.879,259.941 341.879,254.441 340.5,249C 340.833,248.167 341.167,247.333 341.5,246.5C 351.181,251.295 361.181,252.628 371.5,250.5C 372.5,250.5 373.5,250.5 374.5,250.5C 390.786,247.608 402.286,238.608 409,223.5C 410.937,217.19 412.77,210.857 414.5,204.5C 417.507,203.663 420.174,202.33 422.5,200.5C 425.408,197.41 427.242,193.743 428,189.5C 437.574,181.885 442.907,171.885 444,159.5C 444.667,153.5 444.667,147.5 444,141.5C 441.754,132.913 436.254,128.413 427.5,128C 423.926,122.547 418.926,120.38 412.5,121.5C 413.474,115.528 413.641,109.528 413,103.5C 406.38,97.9383 400.047,98.2716 394,104.5C 392.414,106.67 391.08,109.004 390,111.5C 388.169,118.897 386.669,126.23 385.5,133.5C 371.098,140.973 366.764,152.306 372.5,167.5C 373.701,173.221 376.867,177.555 382,180.5C 381.964,187.218 384.131,193.051 388.5,198C 390.078,199.094 391.745,199.928 393.5,200.5C 397.144,211.103 395.144,220.603 387.5,229C 377.993,235.254 367.66,237.088 356.5,234.5C 351.804,232.656 347.137,230.489 342.5,228C 339.663,226.328 337.33,224.161 335.5,221.5C 328.914,186.978 321.581,152.645 313.5,118.5C 315.456,114.925 317.122,111.258 318.5,107.5C 319.651,102.35 319.817,97.0164 319,91.5C 318.128,87.8193 316.294,84.8193 313.5,82.5C 312.833,81.1667 311.833,80.1667 310.5,79.5C 307.88,77.1054 304.713,76.1054 301,76.5C 290.835,77.4952 281.002,79.4952 271.5,82.5C 257.851,84.7308 244.518,87.7308 231.5,91.5C 231.167,91.5 230.833,91.5 230.5,91.5C 222.619,92.724 214.952,94.3907 207.5,96.5C 198.517,97.6265 189.85,99.6265 181.5,102.5C 174.886,103.075 168.553,104.408 162.5,106.5C 156.151,107.448 149.817,108.614 143.5,110C 142.058,110.377 141.058,111.21 140.5,112.5C 136.363,114.716 134.363,118.216 134.5,123C 136.998,135.337 139.665,147.503 142.5,159.5C 144.384,168.14 146.051,176.807 147.5,185.5C 147.604,188.09 146.937,190.423 145.5,192.5C 148.115,195.898 149.781,199.732 150.5,204C 148.983,205.779 148.149,205.279 148,202.5C 146.887,203.76 146.72,204.927 147.5,206C 146.5,206.5 145.5,207 144.5,207.5C 137.884,206.372 131.218,206.205 124.5,207C 123.619,207.708 122.953,208.542 122.5,209.5C 114.905,211.132 108.238,214.632 102.5,220C 98.4468,224.554 95.4468,229.72 93.5,235.5C 90.1839,242.674 88.3505,250.34 88,258.5C 87.0053,259.066 86.172,259.733 85.5,260.5C 85.5,261.167 85.1667,261.5 84.5,261.5C 77.2822,267.395 74.4489,275.062 76,284.5C 71.1142,296.107 71.7809,307.44 78,318.5C 81.9611,324.903 87.4611,326.903 94.5,324.5C 101.167,329.833 107.833,329.833 114.5,324.5C 125.339,324.801 131.839,319.801 134,309.5C 143.025,304.767 146.025,297.434 143,287.5C 141.513,282.2 138.68,277.867 134.5,274.5C 131.323,272.411 127.989,270.577 124.5,269C 121.223,260.342 114.889,255.509 105.5,254.5C 105.098,239.81 111.431,229.31 124.5,223C 135.396,221.248 145.729,222.914 155.5,228C 158.184,234.352 160.184,240.852 161.5,247.5C 161.232,249.099 161.566,250.432 162.5,251.5C 164.348,263.66 166.348,275.66 168.5,287.5C 169.04,295.101 170.373,302.434 172.5,309.5C 172.5,310.833 172.5,312.167 172.5,313.5C 172.337,315.857 172.503,318.19 173,320.5C 173.748,324.433 174.915,328.1 176.5,331.5C 176.84,333.679 177.84,335.512 179.5,337C 188.982,342.418 198.649,342.918 208.5,338.5C 213.956,336.13 216.456,337.797 216,343.5C 212.263,353.313 206.763,361.979 199.5,369.5C 192.378,375.064 184.378,378.398 175.5,379.5C 171.486,379.666 167.486,379.499 163.5,379C 162.722,375.853 161.889,372.687 161,369.5C 160.623,368.058 159.79,367.058 158.5,366.5C 155.493,362.489 152.993,358.155 151,353.5C 148.522,351.18 145.689,349.514 142.5,348.5C 138.498,341.806 132.498,338.973 124.5,340C 121.47,340.578 118.803,341.745 116.5,343.5C 112.798,345.024 109.464,347.19 106.5,350C 95.163,361.535 86.4963,374.701 80.5,389.5C 79.1324,391.564 78.1324,393.898 77.5,396.5C 76.1647,405.518 75.8313,414.518 76.5,423.5C 21.3137,362.742 -0.186322,291.408 12,209.5C 29.2311,122.548 78.3977,60.3816 159.5,23C 236.406,-6.81021 310.072,-0.643543 380.5,41.5 Z"/></g>
<g><path style="opacity:0.004" fill="#000000" d="M 187.5,9.5 C 188.833,10.1667 188.833,10.1667 187.5,9.5 Z"/></g>
<g><path style="opacity:0.004" fill="#000000" d="M 46.5,17.5 C 47.8333,18.1667 47.8333,18.1667 46.5,17.5 Z"/></g>
<g><path style="opacity:0.004" fill="#000000" d="M 17.5,35.5 C 18.8333,36.1667 18.8333,36.1667 17.5,35.5 Z"/></g>
<g><path style="opacity:0.004" fill="#000000" d="M 444.5,50.5 C 445.833,51.1667 445.833,51.1667 444.5,50.5 Z"/></g>
<g><path style="opacity:1" fill="#fef9f6" d="M 392.5,49.5 C 396.238,51.697 399.571,54.3637 402.5,57.5C 402.5,63.1667 402.5,68.8333 402.5,74.5C 399.205,81.816 393.538,84.9827 385.5,84C 379.791,80.0664 377.458,74.5664 378.5,67.5C 376.989,56.4699 381.656,50.4699 392.5,49.5 Z"/></g>
<g><path style="opacity:0.004" fill="#000000" d="M 406.5,55.5 C 407.833,56.1667 407.833,56.1667 406.5,55.5 Z"/></g>
<g><path style="opacity:0.004" fill="#000000" d="M 59.5,56.5 C 60.8333,57.1667 60.8333,57.1667 59.5,56.5 Z"/></g>
<g><path style="opacity:0.004" fill="#000000" d="M 75.5,58.5 C 76.8333,59.1667 76.8333,59.1667 75.5,58.5 Z"/></g>
<g><path style="opacity:1" fill="#c81d0b" d="M 383.5,43.5 C 384.492,43.3284 385.158,43.6618 385.5,44.5C 385.539,45.5832 385.873,46.5832 386.5,47.5C 383.892,50.5452 380.559,52.3785 376.5,53C 375.78,55.1223 374.613,55.6223 373,54.5C 371.061,56.46 371.561,57.7934 374.5,58.5C 375.5,57.8333 376.5,57.1667 377.5,56.5C 378.656,57.5761 378.489,58.5761 377,59.5C 376.127,66.2745 376.627,72.9412 378.5,79.5C 378.012,82.851 376.845,83.1843 375,80.5C 374.667,81.1667 374.333,81.8333 374,82.5C 372.847,79.53 371.18,76.8633 369,74.5C 368.264,66.7169 368.931,59.0503 371,51.5C 372.667,50.8333 374.333,50.1667 376,49.5C 375.598,44.0782 378.098,42.0782 383.5,43.5 Z"/></g>
<g><path style="opacity:1" fill="#ae4034" d="M 402.5,57.5 C 404.23,58.0256 405.564,59.0256 406.5,60.5C 405.25,60.5774 404.417,61.244 404,62.5C 403.824,66.6877 403.324,70.6877 402.5,74.5C 402.5,68.8333 402.5,63.1667 402.5,57.5 Z"/></g>
<g><path style="opacity:1" fill="#be3a2b" d="M 310.5,79.5 C 304.195,78.5133 297.862,78.3466 291.5,79C 285.01,81.1218 278.343,82.2884 271.5,82.5C 281.002,79.4952 290.835,77.4952 301,76.5C 304.713,76.1054 307.88,77.1054 310.5,79.5 Z"/></g>
<g><path style="opacity:1" fill="#c02515" d="M 380.5,41.5 C 382.027,41.427 383.027,42.0937 383.5,43.5C 378.098,42.0782 375.598,44.0782 376,49.5C 374.333,50.1667 372.667,50.8333 371,51.5C 368.931,59.0503 368.264,66.7169 369,74.5C 371.18,76.8633 372.847,79.53 374,82.5C 374.333,81.8333 374.667,81.1667 375,80.5C 376.845,83.1843 378.012,82.851 378.5,79.5C 376.627,72.9412 376.127,66.2745 377,59.5C 378.489,58.5761 378.656,57.5761 377.5,56.5C 376.5,57.1667 375.5,57.8333 374.5,58.5C 371.561,57.7934 371.061,56.46 373,54.5C 374.613,55.6223 375.78,55.1223 376.5,53C 380.559,52.3785 383.892,50.5452 386.5,47.5C 385.873,46.5832 385.539,45.5832 385.5,44.5C 388.135,45.8109 390.469,47.4776 392.5,49.5C 381.656,50.4699 376.989,56.4699 378.5,67.5C 377.458,74.5664 379.791,80.0664 385.5,84C 393.538,84.9827 399.205,81.816 402.5,74.5C 403.324,70.6877 403.824,66.6877 404,62.5C 404.417,61.244 405.25,60.5774 406.5,60.5C 409.784,62.117 412.451,64.4503 414.5,67.5C 413.955,70.8131 413.455,74.1464 413,77.5C 410.116,86.8892 403.949,92.5559 394.5,94.5C 389.047,94.6351 383.714,93.9685 378.5,92.5C 375.215,91.0502 372.715,88.7168 371,85.5C 365.618,73.9385 365.285,62.2719 370,50.5C 372.491,46.1646 375.991,43.1646 380.5,41.5 Z"/></g>
<g><path style="opacity:1" fill="#fefbf8" d="M 310.5,91.5 C 311.611,96.4158 311.778,101.416 311,106.5C 310.215,108.286 309.049,109.786 307.5,111C 295.598,114.28 283.598,117.113 271.5,119.5C 258.621,122.083 245.955,125.083 233.5,128.5C 233.167,128.5 232.833,128.5 232.5,128.5C 209.668,132.931 186.835,137.598 164,142.5C 162.893,142.415 161.893,142.081 161,141.5C 160.584,137.471 159.417,133.804 157.5,130.5C 156.82,125.794 155.153,121.461 152.5,117.5C 156.28,115.854 160.28,114.854 164.5,114.5C 167.85,114.665 171.183,114.498 174.5,114C 178.389,112.839 182.389,111.839 186.5,111C 187.056,110.617 187.389,110.117 187.5,109.5C 218.807,102.172 250.141,95.1719 281.5,88.5C 288.306,87.0908 295.139,85.7575 302,84.5C 306.156,85.1499 308.989,87.4832 310.5,91.5 Z"/></g>
<g><path style="opacity:1" fill="#d02210" d="M 310.5,79.5 C 311.833,80.1667 312.833,81.1667 313.5,82.5C 313.946,86.6382 315.446,90.3049 318,93.5C 318.499,98.1548 318.666,102.821 318.5,107.5C 317.288,108.23 316.288,109.23 315.5,110.5C 314.808,109.975 314.308,109.308 314,108.5C 313.667,108.833 313.333,109.167 313,109.5C 313.129,103.084 312.295,97.0835 310.5,91.5C 308.989,87.4832 306.156,85.1499 302,84.5C 295.139,85.7575 288.306,87.0908 281.5,88.5C 270.824,89.1465 260.324,90.8132 250,93.5C 249.833,93.1667 249.667,92.8333 249.5,92.5C 253.801,92.6189 255.801,90.6189 255.5,86.5C 258.518,86.6646 261.518,86.498 264.5,86C 267.192,85.2567 269.525,84.09 271.5,82.5C 278.343,82.2884 285.01,81.1218 291.5,79C 297.862,78.3466 304.195,78.5133 310.5,79.5 Z"/></g>
<g><path style="opacity:1" fill="#bd463f" d="M 378.5,92.5 C 383.714,93.9685 389.047,94.6351 394.5,94.5C 388.931,96.0755 383.598,95.4088 378.5,92.5 Z"/></g>
<g><path style="opacity:1" fill="#bb3221" d="M 230.5,91.5 C 229.192,92.2323 227.858,93.0656 226.5,94C 223.3,94.1015 220.3,94.7681 217.5,96C 214.183,96.4983 210.85,96.665 207.5,96.5C 214.952,94.3907 222.619,92.724 230.5,91.5 Z"/></g>
<g><path style="opacity:1" fill="#d2210e" d="M 207.5,96.5 C 210.85,96.665 214.183,96.4983 217.5,96C 220.3,94.7681 223.3,94.1015 226.5,94C 227.858,93.0656 229.192,92.2323 230.5,91.5C 230.833,91.5 231.167,91.5 231.5,91.5C 238.971,90.7213 246.305,89.888 253.5,89C 251.622,89.2524 249.622,89.9191 247.5,91C 248.337,92.0113 248.67,93.1779 248.5,94.5C 238.948,96.4019 229.281,97.4019 219.5,97.5C 219.5,98.5 219.5,99.5 219.5,100.5C 216.468,100.495 213.468,100.162 210.5,99.5C 209.5,99.8333 208.5,100.167 207.5,100.5C 209.078,101.298 210.744,101.798 212.5,102C 208.365,102.771 204.698,101.771 201.5,99C 204.051,98.9977 206.051,98.1644 207.5,96.5 Z"/></g>
<g><path style="opacity:1" fill="#bf3d2f" d="M 313.5,82.5 C 316.294,84.8193 318.128,87.8193 319,91.5C 319.817,97.0164 319.651,102.35 318.5,107.5C 318.666,102.821 318.499,98.1548 318,93.5C 315.446,90.3049 313.946,86.6382 313.5,82.5 Z"/></g>
<g><path style="opacity:1" fill="#c52a19" d="M 271.5,82.5 C 269.525,84.09 267.192,85.2567 264.5,86C 261.518,86.498 258.518,86.6646 255.5,86.5C 255.801,90.6189 253.801,92.6189 249.5,92.5C 249.667,92.8333 249.833,93.1667 250,93.5C 260.324,90.8132 270.824,89.1465 281.5,88.5C 250.141,95.1719 218.807,102.172 187.5,109.5C 184.455,109.508 181.455,109.841 178.5,110.5C 184.059,107.996 190.059,106.163 196.5,105C 195.027,104.29 194.36,103.124 194.5,101.5C 190.215,102.295 185.881,102.628 181.5,102.5C 189.85,99.6265 198.517,97.6265 207.5,96.5C 206.051,98.1644 204.051,98.9977 201.5,99C 204.698,101.771 208.365,102.771 212.5,102C 210.744,101.798 209.078,101.298 207.5,100.5C 208.5,100.167 209.5,99.8333 210.5,99.5C 213.468,100.162 216.468,100.495 219.5,100.5C 219.5,99.5 219.5,98.5 219.5,97.5C 229.281,97.4019 238.948,96.4019 248.5,94.5C 248.67,93.1779 248.337,92.0113 247.5,91C 249.622,89.9191 251.622,89.2524 253.5,89C 246.305,89.888 238.971,90.7213 231.5,91.5C 244.518,87.7308 257.851,84.7308 271.5,82.5 Z"/></g>
<g><path style="opacity:1" fill="#c03628" d="M 181.5,102.5 C 181.389,103.117 181.056,103.617 180.5,104C 174.567,105.368 168.567,106.201 162.5,106.5C 168.553,104.408 174.886,103.075 181.5,102.5 Z"/></g>
<g><path style="opacity:1" fill="#d02311" d="M 178.5,110.5 C 173.424,110.514 168.424,111.181 163.5,112.5C 161.44,112.428 159.44,112.095 157.5,111.5C 156.396,112.631 156.729,113.465 158.5,114C 152.359,113.637 149.525,116.47 150,122.5C 148.644,121.62 147.144,121.286 145.5,121.5C 144.081,120.549 142.415,120.216 140.5,120.5C 140.822,124.369 139.655,127.703 137,130.5C 136.333,126.167 136.333,121.833 137,117.5C 138.802,116.211 139.969,114.544 140.5,112.5C 141.058,111.21 142.058,110.377 143.5,110C 149.817,108.614 156.151,107.448 162.5,106.5C 168.567,106.201 174.567,105.368 180.5,104C 181.056,103.617 181.389,103.117 181.5,102.5C 185.881,102.628 190.215,102.295 194.5,101.5C 194.36,103.124 195.027,104.29 196.5,105C 190.059,106.163 184.059,107.996 178.5,110.5 Z"/></g>
<g><path style="opacity:1" fill="#fbdad5" d="M 187.5,109.5 C 187.389,110.117 187.056,110.617 186.5,111C 182.389,111.839 178.389,112.839 174.5,114C 171.183,114.498 167.85,114.665 164.5,114.5C 169.167,113.167 173.833,111.833 178.5,110.5C 181.455,109.841 184.455,109.508 187.5,109.5 Z"/></g>
<g><path style="opacity:1" fill="#c52c1d" d="M 178.5,110.5 C 173.833,111.833 169.167,113.167 164.5,114.5C 160.28,114.854 156.28,115.854 152.5,117.5C 155.153,121.461 156.82,125.794 157.5,130.5C 155.766,128.91 154.6,126.91 154,124.5C 152.989,125.337 151.822,125.67 150.5,125.5C 151.761,129.374 152.428,133.374 152.5,137.5C 150.956,131.885 148.623,126.551 145.5,121.5C 147.144,121.286 148.644,121.62 150,122.5C 149.525,116.47 152.359,113.637 158.5,114C 156.729,113.465 156.396,112.631 157.5,111.5C 159.44,112.095 161.44,112.428 163.5,112.5C 168.424,111.181 173.424,110.514 178.5,110.5 Z"/></g>
<g><path style="opacity:1" fill="#b63a26" d="M 271.5,119.5 C 271.047,120.458 270.381,121.292 269.5,122C 266.629,122.118 263.962,122.784 261.5,124C 251.959,124.946 242.625,126.446 233.5,128.5C 245.955,125.083 258.621,122.083 271.5,119.5 Z"/></g>
<g><path style="opacity:1" fill="#fefbf8" d="M 329.5,223.5 C 332.26,240.294 335.26,256.961 338.5,273.5C 339.609,283.998 340.942,294.331 342.5,304.5C 343.427,310.838 342.093,316.505 338.5,321.5C 336.152,321.67 333.818,322.003 331.5,322.5C 326.616,320.791 321.616,320.291 316.5,321C 313.921,322.076 312.254,323.909 311.5,326.5C 309.674,328.147 308.34,330.147 307.5,332.5C 304.765,336.238 301.432,339.238 297.5,341.5C 295.143,341.663 292.81,341.497 290.5,341C 283.004,336.978 275.671,332.811 268.5,328.5C 262.363,323.789 255.363,322.289 247.5,324C 244.152,326.501 241.818,329.668 240.5,333.5C 238.609,335.442 236.609,337.275 234.5,339C 230.259,340.188 226.592,339.355 223.5,336.5C 223.489,334.983 222.823,333.816 221.5,333C 218.387,331.221 215.054,330.055 211.5,329.5C 206.182,330.963 200.849,332.296 195.5,333.5C 194.465,324.106 193.132,314.773 191.5,305.5C 191.72,300.9 191.054,296.567 189.5,292.5C 188.344,280.891 186.344,269.558 183.5,258.5C 183.737,257.209 183.404,256.209 182.5,255.5C 182.284,249.245 181.284,243.245 179.5,237.5C 177.58,225.295 175.247,213.295 172.5,201.5C 171.767,195.249 170.434,189.249 168.5,183.5C 166.367,172.572 164.701,161.572 163.5,150.5C 181.044,146.778 198.378,142.778 215.5,138.5C 224.69,136.808 233.69,134.808 242.5,132.5C 260.384,128.993 278.051,124.993 295.5,120.5C 295.833,120.5 296.167,120.5 296.5,120.5C 300.212,120.342 303.712,120.342 307,120.5C 315.293,154.67 322.793,189.004 329.5,223.5 Z"/></g>
<g><path style="opacity:0.004" fill="#000000" d="M 475.5,130.5 C 476.833,131.167 476.833,131.167 475.5,130.5 Z"/></g>
<g><path style="opacity:1" fill="#c03021" d="M 140.5,112.5 C 139.969,114.544 138.802,116.211 137,117.5C 136.333,121.833 136.333,126.167 137,130.5C 139.655,127.703 140.822,124.369 140.5,120.5C 142.415,120.216 144.081,120.549 145.5,121.5C 143.516,121.484 142.516,122.484 142.5,124.5C 143.354,128.812 144.021,133.146 144.5,137.5C 142.971,134.945 141.471,132.279 140,129.5C 138.977,130.6 138.477,131.933 138.5,133.5C 139.976,142.199 141.309,150.866 142.5,159.5C 139.665,147.503 136.998,135.337 134.5,123C 134.363,118.216 136.363,114.716 140.5,112.5 Z"/></g>
<g><path style="opacity:1" fill="#ba3824" d="M 232.5,128.5 C 230.353,130.47 228.02,132.303 225.5,134C 231.091,133.246 236.758,132.746 242.5,132.5C 233.69,134.808 224.69,136.808 215.5,138.5C 217.658,136.78 220.325,135.947 223.5,136C 221.109,134.691 221.109,133.691 223.5,133C 222.333,132.833 221.167,132.667 220,132.5C 200.417,136.463 180.917,140.463 161.5,144.5C 160.828,143.733 159.995,143.066 159,142.5C 158.499,138.49 157.999,134.49 157.5,130.5C 159.417,133.804 160.584,137.471 161,141.5C 161.893,142.081 162.893,142.415 164,142.5C 186.835,137.598 209.668,132.931 232.5,128.5 Z"/></g>
<g><path style="opacity:1" fill="#ce250f" d="M 144.5,137.5 C 145.602,145.161 146.269,152.661 146.5,160C 145.181,160.195 143.847,160.028 142.5,159.5C 141.309,150.866 139.976,142.199 138.5,133.5C 138.477,131.933 138.977,130.6 140,129.5C 141.471,132.279 142.971,134.945 144.5,137.5 Z"/></g>
<g><path style="opacity:1" fill="#bc2d1a" d="M 422.5,200.5 C 422.762,199.022 422.429,197.689 421.5,196.5C 416.923,198.474 412.257,199.807 407.5,200.5C 405.048,200.461 403.048,199.794 401.5,198.5C 408.877,199.877 415.21,198.044 420.5,193C 417.5,192.667 414.5,192.333 411.5,192C 409.579,190.759 409.246,189.259 410.5,187.5C 422.314,188.324 430.147,182.99 434,171.5C 438.965,160.692 439.632,149.692 436,138.5C 432.888,134.301 429.221,133.634 425,136.5C 422.005,141.812 419.505,147.312 417.5,153C 417.688,159.546 420.688,161.546 426.5,159C 431.98,153.008 432.814,153.842 429,161.5C 427.833,162.667 426.667,163.833 425.5,165C 421.848,165.499 418.182,165.665 414.5,165.5C 414.884,163.335 414.217,161.668 412.5,160.5C 411.831,162.631 411.165,164.631 410.5,166.5C 409.816,163.454 409.316,160.454 409,157.5C 411.382,158.554 413.882,159.221 416.5,159.5C 416.5,158.167 416.5,156.833 416.5,155.5C 415.5,155.5 414.5,155.5 413.5,155.5C 414.514,152.493 415.514,149.493 416.5,146.5C 414.516,146.617 412.85,145.95 411.5,144.5C 410.676,147.785 410.176,151.118 410,154.5C 409.5,155 409,155.5 408.5,156C 402.448,156.526 396.448,156.526 390.5,156C 392.24,157.517 393.906,159.017 395.5,160.5C 390.986,159.493 388.486,156.826 388,152.5C 394.201,155.313 400.701,156.146 407.5,155C 410.25,151.136 409.916,147.469 406.5,144C 397.437,136.617 388.604,136.783 380,144.5C 373.957,156.746 375.79,167.58 385.5,177C 388.85,178.486 392.184,179.653 395.5,180.5C 391.384,180.459 387.384,179.793 383.5,178.5C 383.505,182.534 383.838,186.534 384.5,190.5C 385.5,190.5 386.5,190.5 387.5,190.5C 387.205,188.265 387.539,186.265 388.5,184.5C 388.263,185.791 388.596,186.791 389.5,187.5C 390.569,189.969 391.902,192.302 393.5,194.5C 391.956,194.297 390.622,193.63 389.5,192.5C 389.167,193.167 388.833,193.833 388.5,194.5C 389.861,196.699 391.527,198.699 393.5,200.5C 391.745,199.928 390.078,199.094 388.5,198C 384.131,193.051 381.964,187.218 382,180.5C 376.867,177.555 373.701,173.221 372.5,167.5C 373.411,161.146 373.578,154.813 373,148.5C 374.117,147.051 374.784,145.384 375,143.5C 378.396,139.935 381.896,136.602 385.5,133.5C 386.669,126.23 388.169,118.897 390,111.5C 391.08,109.004 392.414,106.67 394,104.5C 400.047,98.2716 406.38,97.9383 413,103.5C 413.641,109.528 413.474,115.528 412.5,121.5C 418.926,120.38 423.926,122.547 427.5,128C 436.254,128.413 441.754,132.913 444,141.5C 444.667,147.5 444.667,153.5 444,159.5C 442.907,171.885 437.574,181.885 428,189.5C 427.242,193.743 425.408,197.41 422.5,200.5 Z"/></g>
<g><path style="opacity:1" fill="#fdf8f4" d="M 401.5,198.5 C 398.833,197.167 396.167,195.833 393.5,194.5C 391.902,192.302 390.569,189.969 389.5,187.5C 391.156,185.94 393.156,184.94 395.5,184.5C 396.686,183.295 396.686,181.961 395.5,180.5C 392.184,179.653 388.85,178.486 385.5,177C 375.79,167.58 373.957,156.746 380,144.5C 388.604,136.783 397.437,136.617 406.5,144C 409.916,147.469 410.25,151.136 407.5,155C 400.701,156.146 394.201,155.313 388,152.5C 388.486,156.826 390.986,159.493 395.5,160.5C 398.33,161.735 401.33,162.735 404.5,163.5C 404.353,166.443 403.687,169.276 402.5,172C 402.763,173.946 403.763,174.612 405.5,174C 408.2,172.143 409.866,169.643 410.5,166.5C 411.165,164.631 411.831,162.631 412.5,160.5C 414.217,161.668 414.884,163.335 414.5,165.5C 418.182,165.665 421.848,165.499 425.5,165C 426.667,163.833 427.833,162.667 429,161.5C 432.814,153.842 431.98,153.008 426.5,159C 420.688,161.546 417.688,159.546 417.5,153C 419.505,147.312 422.005,141.812 425,136.5C 429.221,133.634 432.888,134.301 436,138.5C 439.632,149.692 438.965,160.692 434,171.5C 430.147,182.99 422.314,188.324 410.5,187.5C 409.246,189.259 409.579,190.759 411.5,192C 414.5,192.333 417.5,192.667 420.5,193C 415.21,198.044 408.877,199.877 401.5,198.5 Z"/></g>
<g><path style="opacity:1" fill="#fdf6f1" d="M 413.5,127.5 C 417.367,126.775 420.034,128.108 421.5,131.5C 419.438,135.956 417.105,140.289 414.5,144.5C 411.487,141.984 409.487,138.818 408.5,135C 408.831,131.52 410.498,129.02 413.5,127.5 Z"/></g>
<g><path style="opacity:1" fill="#fef4f0" d="M 402.5,104.5 C 404.144,104.286 405.644,104.62 407,105.5C 407.519,113.913 406.852,122.247 405,130.5C 404.077,131.759 403.243,133.092 402.5,134.5C 399.5,133.833 396.5,133.167 393.5,132.5C 392.532,125.344 393.365,118.344 396,111.5C 397.694,108.642 399.861,106.309 402.5,104.5 Z"/></g>
<g><path style="opacity:1" fill="#c72d16" d="M 215.5,138.5 C 198.378,142.778 181.044,146.778 163.5,150.5C 163.881,149.069 164.881,148.236 166.5,148C 164.699,147.683 164.366,147.016 165.5,146C 163.942,145.79 162.609,145.29 161.5,144.5C 180.917,140.463 200.417,136.463 220,132.5C 221.167,132.667 222.333,132.833 223.5,133C 221.109,133.691 221.109,134.691 223.5,136C 220.325,135.947 217.658,136.78 215.5,138.5 Z"/></g>
<g><path style="opacity:1" fill="#d32310" d="M 157.5,130.5 C 157.999,134.49 158.499,138.49 159,142.5C 159.995,143.066 160.828,143.733 161.5,144.5C 162.609,145.29 163.942,145.79 165.5,146C 164.366,147.016 164.699,147.683 166.5,148C 164.881,148.236 163.881,149.069 163.5,150.5C 162.838,152.304 162.505,154.304 162.5,156.5C 164.231,164.073 164.731,171.74 164,179.5C 161.777,177.174 160.277,174.508 159.5,171.5C 158.779,164.533 158.279,157.533 158,150.5C 157.667,150.833 157.333,151.167 157,151.5C 156.472,147.054 155.472,142.721 154,138.5C 153.617,137.944 153.117,137.611 152.5,137.5C 152.428,133.374 151.761,129.374 150.5,125.5C 151.822,125.67 152.989,125.337 154,124.5C 154.6,126.91 155.766,128.91 157.5,130.5 Z"/></g>
<g><path style="opacity:1" fill="#b63021" d="M 385.5,133.5 C 381.896,136.602 378.396,139.935 375,143.5C 374.784,145.384 374.117,147.051 373,148.5C 373.578,154.813 373.411,161.146 372.5,167.5C 366.764,152.306 371.098,140.973 385.5,133.5 Z"/></g>
<g><path style="opacity:1" fill="#c53322" d="M 152.5,137.5 C 153.117,137.611 153.617,137.944 154,138.5C 155.472,142.721 156.472,147.054 157,151.5C 157.333,151.167 157.667,150.833 158,150.5C 158.279,157.533 158.779,164.533 159.5,171.5C 158.778,171.082 158.278,170.416 158,169.5C 156.268,158.808 154.435,148.141 152.5,137.5 Z"/></g>
<g><path style="opacity:1" fill="#c42b13" d="M 410.5,166.5 C 409.866,169.643 408.2,172.143 405.5,174C 403.763,174.612 402.763,173.946 402.5,172C 403.687,169.276 404.353,166.443 404.5,163.5C 401.33,162.735 398.33,161.735 395.5,160.5C 393.906,159.017 392.24,157.517 390.5,156C 396.448,156.526 402.448,156.526 408.5,156C 409,155.5 409.5,155 410,154.5C 410.176,151.118 410.676,147.785 411.5,144.5C 412.85,145.95 414.516,146.617 416.5,146.5C 415.514,149.493 414.514,152.493 413.5,155.5C 414.5,155.5 415.5,155.5 416.5,155.5C 416.5,156.833 416.5,158.167 416.5,159.5C 413.882,159.221 411.382,158.554 409,157.5C 409.316,160.454 409.816,163.454 410.5,166.5 Z"/></g>
<g><path style="opacity:1" fill="#b93726" d="M 281.5,148.5 C 288.147,156.161 291.147,165.161 290.5,175.5C 290.564,179.919 290.064,184.252 289,188.5C 287.839,191.185 286.006,193.185 283.5,194.5C 283.67,193.178 283.337,192.011 282.5,191C 283.793,190.51 285.127,190.343 286.5,190.5C 286.498,188.169 287.331,186.169 289,184.5C 289.667,179.5 289.667,174.5 289,169.5C 287.215,162.191 284.715,155.191 281.5,148.5 Z"/></g>
<g><path style="opacity:1" fill="#fef4f0" d="M 145.5,121.5 C 148.623,126.551 150.956,131.885 152.5,137.5C 154.435,148.141 156.268,158.808 158,169.5C 158.278,170.416 158.778,171.082 159.5,171.5C 160.425,180.063 162.091,188.397 164.5,196.5C 165.146,203.87 166.479,211.037 168.5,218C 168.43,218.765 168.097,219.265 167.5,219.5C 165.167,217.5 162.833,215.5 160.5,213.5C 155.321,188.008 149.988,162.675 144.5,137.5C 144.021,133.146 143.354,128.812 142.5,124.5C 142.516,122.484 143.516,121.484 145.5,121.5 Z"/></g>
<g><path style="opacity:1" fill="#c5260f" d="M 243.5,197.5 C 240.408,198.336 237.241,199.003 234,199.5C 232.167,199.333 230.333,199.167 228.5,199C 226.52,196.836 224.187,195.336 221.5,194.5C 219.707,192.574 218.707,190.241 218.5,187.5C 216.438,178.252 216.105,168.919 217.5,159.5C 218.255,156.675 219.255,154.009 220.5,151.5C 221.058,150.21 222.058,149.377 223.5,149C 231.77,146.978 238.27,149.478 243,156.5C 249.435,167.479 251.101,179.146 248,191.5C 247.208,194.106 245.708,196.106 243.5,197.5 Z"/></g>
<g><path style="opacity:1" fill="#cd290f" d="M 281.5,147.5 C 281.5,147.833 281.5,148.167 281.5,148.5C 284.715,155.191 287.215,162.191 289,169.5C 289.667,174.5 289.667,179.5 289,184.5C 287.331,186.169 286.498,188.169 286.5,190.5C 285.127,190.343 283.793,190.51 282.5,191C 283.337,192.011 283.67,193.178 283.5,194.5C 280.15,194.665 276.817,194.498 273.5,194C 272.939,192.324 271.939,190.991 270.5,190C 270.833,189.667 271.167,189.333 271.5,189C 270.051,187.883 268.384,187.216 266.5,187C 265.603,184.689 264.27,182.856 262.5,181.5C 261.615,175.715 260.949,169.882 260.5,164C 260.329,158.675 260.996,153.508 262.5,148.5C 265.509,146.845 268.676,145.512 272,144.5C 275.411,144.749 278.578,145.749 281.5,147.5 Z"/></g>
<g><path style="opacity:1" fill="#b23a2c" d="M 220.5,151.5 C 219.255,154.009 218.255,156.675 217.5,159.5C 216.105,168.919 216.438,178.252 218.5,187.5C 214.407,177.885 213.574,167.885 216,157.5C 216.792,154.894 218.292,152.894 220.5,151.5 Z"/></g>
<g><path style="opacity:1" fill="#b73a29" d="M 281.5,147.5 C 278.578,145.749 275.411,144.749 272,144.5C 268.676,145.512 265.509,146.845 262.5,148.5C 260.996,153.508 260.329,158.675 260.5,164C 260.949,169.882 261.615,175.715 262.5,181.5C 257.605,170.311 257.438,158.978 262,147.5C 264.536,144.234 267.869,142.9 272,143.5C 276.115,142.823 279.282,144.156 281.5,147.5 Z"/></g>
<g><path style="opacity:1" fill="#c53120" d="M 163.5,150.5 C 164.701,161.572 166.367,172.572 168.5,183.5C 167.685,182.571 166.852,181.571 166,180.5C 164.729,185.754 164.229,191.087 164.5,196.5C 162.091,188.397 160.425,180.063 159.5,171.5C 160.277,174.508 161.777,177.174 164,179.5C 164.731,171.74 164.231,164.073 162.5,156.5C 162.505,154.304 162.838,152.304 163.5,150.5 Z"/></g>
<g><path style="opacity:1" fill="#c32711" d="M 395.5,180.5 C 396.686,181.961 396.686,183.295 395.5,184.5C 393.167,184.5 390.833,184.5 388.5,184.5C 387.539,186.265 387.205,188.265 387.5,190.5C 386.5,190.5 385.5,190.5 384.5,190.5C 383.838,186.534 383.505,182.534 383.5,178.5C 387.384,179.793 391.384,180.459 395.5,180.5 Z"/></g>
<g><path style="opacity:1" fill="#c42d19" d="M 310.5,91.5 C 312.295,97.0835 313.129,103.084 313,109.5C 313.333,109.167 313.667,108.833 314,108.5C 314.308,109.308 314.808,109.975 315.5,110.5C 316.288,109.23 317.288,108.23 318.5,107.5C 317.122,111.258 315.456,114.925 313.5,118.5C 321.581,152.645 328.914,186.978 335.5,221.5C 337.33,224.161 339.663,226.328 342.5,228C 347.137,230.489 351.804,232.656 356.5,234.5C 353.492,234.299 350.492,233.966 347.5,233.5C 344.508,234.368 341.508,234.868 338.5,235C 341.325,233.526 341.658,232.026 339.5,230.5C 340.025,229.808 340.692,229.308 341.5,229C 333.943,227.1 330.776,222.267 332,214.5C 330.711,217.351 330.211,220.351 330.5,223.5C 330.167,223.5 329.833,223.5 329.5,223.5C 322.793,189.004 315.293,154.67 307,120.5C 303.712,120.342 300.212,120.342 296.5,120.5C 297.871,119.213 299.705,118.547 302,118.5C 306.578,117.385 308.744,119.051 308.5,123.5C 309.822,123.33 310.989,123.663 312,124.5C 312.867,120.044 312.534,115.711 311,111.5C 307.175,112.21 303.342,113.044 299.5,114C 296.94,116.556 293.94,118.39 290.5,119.5C 292.045,120.452 293.712,120.785 295.5,120.5C 278.051,124.993 260.384,128.993 242.5,132.5C 236.758,132.746 231.091,133.246 225.5,134C 228.02,132.303 230.353,130.47 232.5,128.5C 232.833,128.5 233.167,128.5 233.5,128.5C 242.625,126.446 251.959,124.946 261.5,124C 263.962,122.784 266.629,122.118 269.5,122C 270.381,121.292 271.047,120.458 271.5,119.5C 283.598,117.113 295.598,114.28 307.5,111C 309.049,109.786 310.215,108.286 311,106.5C 311.778,101.416 311.611,96.4158 310.5,91.5 Z"/></g>
<g><path style="opacity:1" fill="#d12610" d="M 296.5,120.5 C 296.167,120.5 295.833,120.5 295.5,120.5C 293.712,120.785 292.045,120.452 290.5,119.5C 293.94,118.39 296.94,116.556 299.5,114C 303.342,113.044 307.175,112.21 311,111.5C 312.534,115.711 312.867,120.044 312,124.5C 310.989,123.663 309.822,123.33 308.5,123.5C 308.744,119.051 306.578,117.385 302,118.5C 299.705,118.547 297.871,119.213 296.5,120.5 Z"/></g>
<g><path style="opacity:1" fill="#e58979" d="M 388.5,184.5 C 390.833,184.5 393.167,184.5 395.5,184.5C 393.156,184.94 391.156,185.94 389.5,187.5C 388.596,186.791 388.263,185.791 388.5,184.5 Z"/></g>
<g><path style="opacity:1" fill="#bf321f" d="M 144.5,137.5 C 149.988,162.675 155.321,188.008 160.5,213.5C 158.905,211.889 157.739,209.889 157,207.5C 156.596,201.375 155.596,195.375 154,189.5C 151.888,195.754 152.055,201.921 154.5,208C 154.486,209.385 154.152,210.551 153.5,211.5C 151.864,202.639 149.864,193.972 147.5,185.5C 146.051,176.807 144.384,168.14 142.5,159.5C 143.847,160.028 145.181,160.195 146.5,160C 146.269,152.661 145.602,145.161 144.5,137.5 Z"/></g>
<g><path style="opacity:1" fill="#ba3626" d="M 262.5,181.5 C 264.27,182.856 265.603,184.689 266.5,187C 268.384,187.216 270.051,187.883 271.5,189C 271.167,189.333 270.833,189.667 270.5,190C 271.939,190.991 272.939,192.324 273.5,194C 276.817,194.498 280.15,194.665 283.5,194.5C 272.929,196.689 265.929,192.356 262.5,181.5 Z"/></g>
<g><path style="opacity:1" fill="#b83121" d="M 221.5,194.5 C 224.187,195.336 226.52,196.836 228.5,199C 230.333,199.167 232.167,199.333 234,199.5C 237.241,199.003 240.408,198.336 243.5,197.5C 239.645,202.126 234.645,203.626 228.5,202C 225.283,200.285 222.95,197.785 221.5,194.5 Z"/></g>
<g><path style="opacity:1" fill="#fdebe5" d="M 147.5,185.5 C 149.864,193.972 151.864,202.639 153.5,211.5C 143.318,208.634 132.984,207.968 122.5,209.5C 122.953,208.542 123.619,207.708 124.5,207C 131.218,206.205 137.884,206.372 144.5,207.5C 145.5,207 146.5,206.5 147.5,206C 146.72,204.927 146.887,203.76 148,202.5C 148.149,205.279 148.983,205.779 150.5,204C 149.781,199.732 148.115,195.898 145.5,192.5C 146.937,190.423 147.604,188.09 147.5,185.5 Z"/></g>
<g><path style="opacity:1" fill="#b02d1f" d="M 304.5,209.5 C 299.886,208.45 295.22,208.283 290.5,209C 290.043,209.414 289.709,209.914 289.5,210.5C 290.243,211.182 290.909,211.849 291.5,212.5C 290.167,212.5 288.833,212.5 287.5,212.5C 287.561,209.27 289.228,207.437 292.5,207C 295.5,206.333 298.5,206.333 301.5,207C 302.942,207.377 303.942,208.21 304.5,209.5 Z"/></g>
<g><path style="opacity:1" fill="#c72c15" d="M 304.5,209.5 C 305.117,209.611 305.617,209.944 306,210.5C 307.399,216.609 304.899,219.609 298.5,219.5C 297.712,220.77 296.712,221.77 295.5,222.5C 293.584,220.884 292.084,221.218 291,223.5C 290.727,221.899 290.227,220.399 289.5,219C 291.141,217.871 292.141,216.371 292.5,214.5C 292.672,213.508 292.338,212.842 291.5,212.5C 290.909,211.849 290.243,211.182 289.5,210.5C 289.709,209.914 290.043,209.414 290.5,209C 295.22,208.283 299.886,208.45 304.5,209.5 Z"/></g>
<g><path style="opacity:1" fill="#c72c15" d="M 160.5,213.5 C 162.833,215.5 165.167,217.5 167.5,219.5C 166.183,219.179 164.849,218.846 163.5,218.5C 160.575,220.669 157.241,222.002 153.5,222.5C 154.5,223.5 155.5,224.5 156.5,225.5C 157.086,225.291 157.586,224.957 158,224.5C 158.495,226.473 158.662,228.473 158.5,230.5C 159.552,230.351 160.552,230.517 161.5,231C 160.352,236.447 160.352,241.947 161.5,247.5C 160.184,240.852 158.184,234.352 155.5,228C 145.729,222.914 135.396,221.248 124.5,223C 111.431,229.31 105.098,239.81 105.5,254.5C 114.889,255.509 121.223,260.342 124.5,269C 127.989,270.577 131.323,272.411 134.5,274.5C 135.038,276.117 135.371,277.784 135.5,279.5C 133.315,279.296 131.315,278.63 129.5,277.5C 126.07,276.286 122.736,274.786 119.5,273C 115.167,272.667 110.833,272.333 106.5,272C 105.167,271 105.167,270 106.5,269C 117.221,268.348 117.888,266.014 108.5,262C 103.428,261.249 98.4285,261.582 93.5,263C 90.9482,265.853 88.1149,268.353 85,270.5C 82.2495,276.516 83.4162,277.682 88.5,274C 90.5787,273.192 92.5787,273.359 94.5,274.5C 90.0472,277.717 86.0472,281.384 82.5,285.5C 81.2652,285.721 80.2652,286.388 79.5,287.5C 78.3368,281.863 78.1701,276.196 79,270.5C 81.5503,267.925 83.3836,264.925 84.5,261.5C 85.1667,261.5 85.5,261.167 85.5,260.5C 87.9115,260.863 89.4115,259.863 90,257.5C 90.2662,249.99 91.4329,242.656 93.5,235.5C 95.4468,229.72 98.4468,224.554 102.5,220C 108.238,214.632 114.905,211.132 122.5,209.5C 132.984,207.968 143.318,208.634 153.5,211.5C 154.152,210.551 154.486,209.385 154.5,208C 152.055,201.921 151.888,195.754 154,189.5C 155.596,195.375 156.596,201.375 157,207.5C 157.739,209.889 158.905,211.889 160.5,213.5 Z"/></g>
<g><path style="opacity:0.004" fill="#000000" d="M 7.5,218.5 C 8.83333,219.167 8.83333,219.167 7.5,218.5 Z"/></g>
<g><path style="opacity:1" fill="#c52c15" d="M 393.5,194.5 C 396.167,195.833 398.833,197.167 401.5,198.5C 403.048,199.794 405.048,200.461 407.5,200.5C 412.257,199.807 416.923,198.474 421.5,196.5C 422.429,197.689 422.762,199.022 422.5,200.5C 420.174,202.33 417.507,203.663 414.5,204.5C 412.77,210.857 410.937,217.19 409,223.5C 402.286,238.608 390.786,247.608 374.5,250.5C 374.611,249.883 374.944,249.383 375.5,249C 378.883,248.125 382.216,247.125 385.5,246C 384.833,245.667 384.167,245.333 383.5,245C 385.5,244.667 387.5,244.333 389.5,244C 388.78,241.878 387.613,241.378 386,242.5C 385.691,241.234 385.191,240.067 384.5,239C 381.768,238.587 379.101,237.92 376.5,237C 369.425,237.133 362.758,236.3 356.5,234.5C 367.66,237.088 377.993,235.254 387.5,229C 395.144,220.603 397.144,211.103 393.5,200.5C 391.527,198.699 389.861,196.699 388.5,194.5C 388.833,193.833 389.167,193.167 389.5,192.5C 390.622,193.63 391.956,194.297 393.5,194.5 Z"/></g>
<g><path style="opacity:1" fill="#c82811" d="M 220.5,219.5 C 220.833,219.5 221.167,219.5 221.5,219.5C 221.5,220.5 221.5,221.5 221.5,222.5C 225.881,223.683 230.214,225.183 234.5,227C 233.62,228.356 233.286,229.856 233.5,231.5C 229.334,229.905 225.001,228.905 220.5,228.5C 218.216,228.025 216.216,227.025 214.5,225.5C 214.265,224.903 213.765,224.57 213,224.5C 211.7,225.707 210.2,226.374 208.5,226.5C 208.343,225.127 208.51,223.793 209,222.5C 211.854,219.72 215.021,217.386 218.5,215.5C 219.172,216.949 219.839,218.282 220.5,219.5 Z"/></g>
<g><path style="opacity:1" fill="#b23324" d="M 220.5,219.5 C 219.839,218.282 219.172,216.949 218.5,215.5C 215.021,217.386 211.854,219.72 209,222.5C 208.51,223.793 208.343,225.127 208.5,226.5C 210.2,226.374 211.7,225.707 213,224.5C 213.765,224.57 214.265,224.903 214.5,225.5C 212.281,227.606 209.615,228.606 206.5,228.5C 207.817,219.85 212.817,214.85 221.5,213.5C 221.483,215.565 221.15,217.565 220.5,219.5 Z"/></g>
<g><path style="opacity:1" fill="#c1301f" d="M 172.5,201.5 C 175.247,213.295 177.58,225.295 179.5,237.5C 177.886,235.925 175.886,235.259 173.5,235.5C 175.824,247.419 177.824,259.419 179.5,271.5C 176.704,260.029 174.204,248.362 172,236.5C 171.005,235.934 170.172,235.267 169.5,234.5C 170.833,234.5 172.167,234.5 173.5,234.5C 173.44,231.979 174.106,229.646 175.5,227.5C 173.35,218.966 172.35,210.299 172.5,201.5 Z"/></g>
<g><path style="opacity:1" fill="#b9331d" d="M 292.5,214.5 C 292.141,216.371 291.141,217.871 289.5,219C 290.227,220.399 290.727,221.899 291,223.5C 292.084,221.218 293.584,220.884 295.5,222.5C 293.393,224.727 291.06,226.727 288.5,228.5C 289.657,225.454 289.657,222.787 288.5,220.5C 272.366,230.567 255.033,233.234 236.5,228.5C 236.167,230.5 235.833,232.5 235.5,234.5C 239.203,233.17 242.87,233.336 246.5,235C 245.833,235.333 245.167,235.667 244.5,236C 252.827,236.5 261.16,236.666 269.5,236.5C 251.907,241.209 235.574,238.543 220.5,228.5C 225.001,228.905 229.334,229.905 233.5,231.5C 233.286,229.856 233.62,228.356 234.5,227C 230.214,225.183 225.881,223.683 221.5,222.5C 221.5,221.5 221.5,220.5 221.5,219.5C 240.37,231.014 260.037,232.514 280.5,224C 284.95,221.381 288.95,218.214 292.5,214.5 Z"/></g>
<g><path style="opacity:1" fill="#c82a12" d="M 288.5,228.5 C 282.757,232.538 276.423,235.204 269.5,236.5C 261.16,236.666 252.827,236.5 244.5,236C 245.167,235.667 245.833,235.333 246.5,235C 242.87,233.336 239.203,233.17 235.5,234.5C 235.833,232.5 236.167,230.5 236.5,228.5C 255.033,233.234 272.366,230.567 288.5,220.5C 289.657,222.787 289.657,225.454 288.5,228.5 Z"/></g>
<g><path style="opacity:1" fill="#cb2910" d="M 356.5,234.5 C 362.758,236.3 369.425,237.133 376.5,237C 379.101,237.92 381.768,238.587 384.5,239C 385.191,240.067 385.691,241.234 386,242.5C 387.613,241.378 388.78,241.878 389.5,244C 387.5,244.333 385.5,244.667 383.5,245C 384.167,245.333 384.833,245.667 385.5,246C 382.216,247.125 378.883,248.125 375.5,249C 374.944,249.383 374.611,249.883 374.5,250.5C 373.5,250.5 372.5,250.5 371.5,250.5C 358.954,249.417 346.621,247.75 334.5,245.5C 333.091,238.104 331.758,230.771 330.5,223.5C 330.211,220.351 330.711,217.351 332,214.5C 330.776,222.267 333.943,227.1 341.5,229C 340.692,229.308 340.025,229.808 339.5,230.5C 341.658,232.026 341.325,233.526 338.5,235C 341.508,234.868 344.508,234.368 347.5,233.5C 350.492,233.966 353.492,234.299 356.5,234.5 Z"/></g>
<g><path style="opacity:1" fill="#c04435" d="M 93.5,235.5 C 91.4329,242.656 90.2662,249.99 90,257.5C 89.4115,259.863 87.9115,260.863 85.5,260.5C 86.172,259.733 87.0053,259.066 88,258.5C 88.3505,250.34 90.1839,242.674 93.5,235.5 Z"/></g>
<g><path style="opacity:1" fill="#bc4133" d="M 179.5,237.5 C 181.284,243.245 182.284,249.245 182.5,255.5C 180.716,249.755 179.716,243.755 179.5,237.5 Z"/></g>
<g><path style="opacity:1" fill="#b93826" d="M 329.5,223.5 C 329.833,223.5 330.167,223.5 330.5,223.5C 331.758,230.771 333.091,238.104 334.5,245.5C 346.621,247.75 358.954,249.417 371.5,250.5C 361.181,252.628 351.181,251.295 341.5,246.5C 341.167,247.333 340.833,248.167 340.5,249C 341.879,254.441 342.879,259.941 343.5,265.5C 341.315,260.488 339.815,255.155 339,249.5C 338.29,248.027 337.124,247.36 335.5,247.5C 337.342,256.064 338.342,264.73 338.5,273.5C 335.26,256.961 332.26,240.294 329.5,223.5 Z"/></g>
<g><path style="opacity:1" fill="#c42b16" d="M 315.5,244.5 C 320.777,246.777 324.777,250.444 327.5,255.5C 328.341,262.465 328.674,269.465 328.5,276.5C 328.5,276.833 328.5,277.167 328.5,277.5C 327.527,278.791 326.527,278.791 325.5,277.5C 324.548,275.955 324.215,274.288 324.5,272.5C 326.083,261.318 321.749,253.652 311.5,249.5C 308.972,248.834 306.306,248.168 303.5,247.5C 303.291,246.914 302.957,246.414 302.5,246C 306.635,244.569 310.968,244.069 315.5,244.5 Z"/></g>
<g><path style="opacity:1" fill="#cd2712" d="M 168.5,183.5 C 170.434,189.249 171.767,195.249 172.5,201.5C 172.35,210.299 173.35,218.966 175.5,227.5C 174.106,229.646 173.44,231.979 173.5,234.5C 172.167,234.5 170.833,234.5 169.5,234.5C 168.391,234.443 167.391,234.11 166.5,233.5C 166.44,232.957 166.107,232.624 165.5,232.5C 165.167,234.667 164.833,236.833 164.5,239C 164.482,243.371 165.149,247.538 166.5,251.5C 165.167,251.5 163.833,251.5 162.5,251.5C 161.566,250.432 161.232,249.099 161.5,247.5C 160.352,241.947 160.352,236.447 161.5,231C 160.552,230.517 159.552,230.351 158.5,230.5C 158.662,228.473 158.495,226.473 158,224.5C 157.586,224.957 157.086,225.291 156.5,225.5C 155.5,224.5 154.5,223.5 153.5,222.5C 157.241,222.002 160.575,220.669 163.5,218.5C 164.849,218.846 166.183,219.179 167.5,219.5C 168.097,219.265 168.43,218.765 168.5,218C 166.479,211.037 165.146,203.87 164.5,196.5C 164.229,191.087 164.729,185.754 166,180.5C 166.852,181.571 167.685,182.571 168.5,183.5 Z"/></g>
<g><path style="opacity:1" fill="#c82811" d="M 207.5,254.5 C 205.821,254.108 204.154,253.608 202.5,253C 204.041,251.629 205.375,250.129 206.5,248.5C 214.223,245.711 221.889,245.878 229.5,249C 230.337,250.011 230.67,251.178 230.5,252.5C 225.488,251.274 220.488,249.941 215.5,248.5C 212.338,250.055 209.672,252.055 207.5,254.5 Z"/></g>
<g><path style="opacity:1" fill="#bb3422" d="M 166.5,233.5 C 165.371,235.628 165.204,237.961 166,240.5C 169.858,257.661 173.025,274.994 175.5,292.5C 171.861,280.434 168.861,268.101 166.5,255.5C 166.167,256.5 165.833,257.5 165.5,258.5C 166.452,268.287 167.452,277.954 168.5,287.5C 166.348,275.66 164.348,263.66 162.5,251.5C 163.833,251.5 165.167,251.5 166.5,251.5C 165.149,247.538 164.482,243.371 164.5,239C 164.833,236.833 165.167,234.667 165.5,232.5C 166.107,232.624 166.44,232.957 166.5,233.5 Z"/></g>
<g><path style="opacity:1" fill="#fdf7f3" d="M 204.5,278.5 C 204.672,277.508 204.338,276.842 203.5,276.5C 199.947,268.245 201.28,260.912 207.5,254.5C 219.813,248.216 228.979,251.216 235,263.5C 236.388,273.889 232.222,281.056 222.5,285C 215.376,285.903 209.376,283.737 204.5,278.5 Z"/></g>
<g><path style="opacity:1" fill="#b8311f" d="M 206.5,248.5 C 205.375,250.129 204.041,251.629 202.5,253C 204.154,253.608 205.821,254.108 207.5,254.5C 201.28,260.912 199.947,268.245 203.5,276.5C 202.542,276.047 201.708,275.381 201,274.5C 200.235,268.365 200.735,262.365 202.5,256.5C 201.178,256.33 200.011,256.663 199,257.5C 196.795,262.932 195.962,268.598 196.5,274.5C 193.338,263.319 196.671,254.652 206.5,248.5 Z"/></g>
<g><path style="opacity:1" fill="#c72611" d="M 343.5,265.5 C 343.5,265.833 343.5,266.167 343.5,266.5C 344.182,272.827 344.348,279.161 344,285.5C 343.667,285.833 343.333,286.167 343,286.5C 342.692,285.692 342.192,285.025 341.5,284.5C 341.009,280.545 340.009,276.879 338.5,273.5C 338.342,264.73 337.342,256.064 335.5,247.5C 337.124,247.36 338.29,248.027 339,249.5C 339.815,255.155 341.315,260.488 343.5,265.5 Z"/></g>
<g><path style="opacity:1" fill="#b33d2d" d="M 211.5,260.5 C 215.193,260.186 217.527,261.852 218.5,265.5C 215.451,269.485 212.451,269.485 209.5,265.5C 210.187,263.823 210.854,262.156 211.5,260.5 Z"/></g>
<g><path style="opacity:1" fill="#b23322" d="M 327.5,255.5 C 329.92,258.293 330.92,261.626 330.5,265.5C 330.546,269.428 329.88,273.095 328.5,276.5C 328.674,269.465 328.341,262.465 327.5,255.5 Z"/></g>
<g><path style="opacity:1" fill="#cf200f" d="M 179.5,237.5 C 179.716,243.755 180.716,249.755 182.5,255.5C 183.404,256.209 183.737,257.209 183.5,258.5C 184.072,267.982 185.072,277.315 186.5,286.5C 186.333,289.833 186.167,293.167 186,296.5C 185.329,297.252 184.496,297.586 183.5,297.5C 183.5,296.5 183.5,295.5 183.5,294.5C 182.846,288.19 182.346,281.857 182,275.5C 181.066,274.142 180.232,272.808 179.5,271.5C 177.824,259.419 175.824,247.419 173.5,235.5C 175.886,235.259 177.886,235.925 179.5,237.5 Z"/></g>
<g><path style="opacity:1" fill="#fdf9f6" d="M 129.5,277.5 C 134.911,283.006 137.411,289.673 137,297.5C 136.32,299.513 134.987,300.846 133,301.5C 130.843,298.53 128.676,295.53 126.5,292.5C 125.675,291.614 124.675,291.281 123.5,291.5C 124.113,296.842 125.447,302.009 127.5,307C 126.946,315.219 122.613,318.552 114.5,317C 111.721,312.615 109.054,308.115 106.5,303.5C 105.311,302.571 103.978,302.238 102.5,302.5C 104.156,307.804 105.823,313.137 107.5,318.5C 107.392,319.442 107.059,320.275 106.5,321C 103.697,321.755 101.03,321.422 98.5,320C 96.6176,317.022 95.1176,313.855 94,310.5C 92.7365,308.393 90.9032,307.393 88.5,307.5C 89.1667,311.5 89.8333,315.5 90.5,319.5C 88.4176,319.528 86.5843,318.861 85,317.5C 78.8105,307.175 77.9772,296.508 82.5,285.5C 86.0472,281.384 90.0472,277.717 94.5,274.5C 92.5787,273.359 90.5787,273.192 88.5,274C 83.4162,277.682 82.2495,276.516 85,270.5C 88.1149,268.353 90.9482,265.853 93.5,263C 98.4285,261.582 103.428,261.249 108.5,262C 117.888,266.014 117.221,268.348 106.5,269C 105.167,270 105.167,271 106.5,272C 110.833,272.333 115.167,272.667 119.5,273C 122.736,274.786 126.07,276.286 129.5,277.5 Z"/></g>
<g><path style="opacity:1" fill="#ca270d" d="M 212.5,262.5 C 215.5,262.167 216.833,263.5 216.5,266.5C 214.833,266.5 213.167,266.5 211.5,266.5C 211.433,265.041 211.766,263.708 212.5,262.5 Z"/></g>
<g><path style="opacity:1" fill="#b43224" d="M 288.5,255.5 C 287.676,259.799 287.009,264.133 286.5,268.5C 287.668,274.02 289.334,279.353 291.5,284.5C 288.919,281.68 287.086,278.346 286,274.5C 285.333,269.833 285.333,265.167 286,260.5C 286.374,258.509 287.207,256.842 288.5,255.5 Z"/></g>
<g><path style="opacity:1" fill="#fdf5f0" d="M 311.5,249.5 C 321.749,253.652 326.083,261.318 324.5,272.5C 317.793,286.272 308.293,288.606 296,279.5C 289.315,267.147 291.815,257.313 303.5,250C 306.146,249.503 308.813,249.336 311.5,249.5 Z"/></g>
<g><path style="opacity:1" fill="#b6473a" d="M 301.5,262.5 C 301.167,266.833 303.167,268.833 307.5,268.5C 303.955,270.243 301.289,269.243 299.5,265.5C 299.453,263.962 300.12,262.962 301.5,262.5 Z"/></g>
<g><path style="opacity:1" fill="#c22b17" d="M 307.5,268.5 C 303.167,268.833 301.167,266.833 301.5,262.5C 302.952,260.148 304.952,259.815 307.5,261.5C 308.714,263.859 308.714,266.192 307.5,268.5 Z"/></g>
<g><path style="opacity:1" fill="#b53828" d="M 220.5,269.5 C 223.4,269.28 226.067,269.946 228.5,271.5C 226.841,274.433 224.507,275.1 221.5,273.5C 220.754,272.264 220.421,270.93 220.5,269.5 Z"/></g>
<g><path style="opacity:1" fill="#c92a14" d="M 203.5,276.5 C 204.338,276.842 204.672,277.508 204.5,278.5C 206.021,282.115 208.687,284.615 212.5,286C 217.348,286.059 222.015,286.726 226.5,288C 219.783,288.756 213.117,288.589 206.5,287.5C 200.99,284.973 197.656,280.64 196.5,274.5C 195.962,268.598 196.795,262.932 199,257.5C 200.011,256.663 201.178,256.33 202.5,256.5C 200.735,262.365 200.235,268.365 201,274.5C 201.708,275.381 202.542,276.047 203.5,276.5 Z"/></g>
<g><path style="opacity:1" fill="#b93424" d="M 316.5,269.5 C 317.649,269.791 318.316,270.624 318.5,272C 317.698,278.155 315.198,278.988 311,274.5C 310.517,273.552 310.351,272.552 310.5,271.5C 313.01,271.946 315.01,271.28 316.5,269.5 Z"/></g>
<g><path style="opacity:1" fill="#c8280f" d="M 291.5,284.5 C 289.334,279.353 287.668,274.02 286.5,268.5C 287.009,264.133 287.676,259.799 288.5,255.5C 291.895,251.782 295.895,248.782 300.5,246.5C 301.429,247.689 301.762,249.022 301.5,250.5C 299.5,250.5 297.5,250.5 295.5,250.5C 292.782,256.36 291.116,262.694 290.5,269.5C 291.911,275.351 294.244,280.851 297.5,286C 295.494,285.85 293.494,285.35 291.5,284.5 Z"/></g>
<g><path style="opacity:1" fill="#bd3122" d="M 179.5,271.5 C 180.232,272.808 181.066,274.142 182,275.5C 182.346,281.857 182.846,288.19 183.5,294.5C 181.409,287.096 180.075,279.429 179.5,271.5 Z"/></g>
<g><path style="opacity:1" fill="#fdf3ef" d="M 166.5,233.5 C 167.391,234.11 168.391,234.443 169.5,234.5C 170.172,235.267 171.005,235.934 172,236.5C 174.204,248.362 176.704,260.029 179.5,271.5C 180.075,279.429 181.409,287.096 183.5,294.5C 183.5,295.5 183.5,296.5 183.5,297.5C 185.636,309.389 186.969,321.389 187.5,333.5C 186.833,333.5 186.167,333.5 185.5,333.5C 182.817,329.98 180.984,325.98 180,321.5C 178.57,312.347 177.07,303.347 175.5,294.5C 175.5,293.833 175.5,293.167 175.5,292.5C 173.025,274.994 169.858,257.661 166,240.5C 165.204,237.961 165.371,235.628 166.5,233.5 Z"/></g>
<g><path style="opacity:1" fill="#b63222" d="M 211.5,275.5 C 213.833,275.5 216.167,275.5 218.5,275.5C 217.925,279.473 215.758,280.473 212,278.5C 211.517,277.552 211.351,276.552 211.5,275.5 Z"/></g>
<g><path style="opacity:1" fill="#fdf1ed" d="M 267.5,271.5 C 266.798,281.192 262.132,288.192 253.5,292.5C 253.932,282.626 258.599,275.626 267.5,271.5 Z"/></g>
<g><path style="opacity:1" fill="#c32912" d="M 267.5,271.5 C 258.599,275.626 253.932,282.626 253.5,292.5C 254.313,293.653 255.313,293.653 256.5,292.5C 257.626,293.808 257.626,295.142 256.5,296.5C 253.833,296.5 251.167,296.5 248.5,296.5C 247.85,289.209 248.85,282.209 251.5,275.5C 253.999,270.576 257.999,267.576 263.5,266.5C 266.545,266.492 269.545,266.159 272.5,265.5C 272.837,269.308 272.337,272.974 271,276.5C 270.586,276.957 270.086,277.291 269.5,277.5C 268.831,275.369 268.165,273.369 267.5,271.5 Z"/></g>
<g><path style="opacity:1" fill="#bb3423" d="M 315.5,244.5 C 310.968,244.069 306.635,244.569 302.5,246C 302.957,246.414 303.291,246.914 303.5,247.5C 306.306,248.168 308.972,248.834 311.5,249.5C 308.813,249.336 306.146,249.503 303.5,250C 291.815,257.313 289.315,267.147 296,279.5C 308.293,288.606 317.793,286.272 324.5,272.5C 324.215,274.288 324.548,275.955 325.5,277.5C 326.527,278.791 327.527,278.791 328.5,277.5C 327.66,279.853 326.326,281.853 324.5,283.5C 324.762,282.022 324.429,280.689 323.5,279.5C 322.305,281.297 320.638,282.297 318.5,282.5C 318.5,283.5 318.5,284.5 318.5,285.5C 312.472,286.616 306.472,286.616 300.5,285.5C 299.614,286.325 299.281,287.325 299.5,288.5C 301.897,289.368 304.397,290.035 307,290.5C 310.861,289.933 314.695,289.267 318.5,288.5C 311.353,292.25 304.02,292.416 296.5,289C 294.382,287.951 292.716,286.451 291.5,284.5C 293.494,285.35 295.494,285.85 297.5,286C 294.244,280.851 291.911,275.351 290.5,269.5C 291.116,262.694 292.782,256.36 295.5,250.5C 297.5,250.5 299.5,250.5 301.5,250.5C 301.762,249.022 301.429,247.689 300.5,246.5C 295.895,248.782 291.895,251.782 288.5,255.5C 294.911,244.776 303.911,241.11 315.5,244.5 Z"/></g>
<g><path style="opacity:1" fill="#be3320" d="M 206.5,287.5 C 213.117,288.589 219.783,288.756 226.5,288C 222.015,286.726 217.348,286.059 212.5,286C 208.687,284.615 206.021,282.115 204.5,278.5C 209.376,283.737 215.376,285.903 222.5,285C 232.222,281.056 236.388,273.889 235,263.5C 228.979,251.216 219.813,248.216 207.5,254.5C 209.672,252.055 212.338,250.055 215.5,248.5C 220.488,249.941 225.488,251.274 230.5,252.5C 230.67,251.178 230.337,250.011 229.5,249C 221.889,245.878 214.223,245.711 206.5,248.5C 221.53,241.013 232.697,245.013 240,260.5C 242.362,282.015 232.862,292.182 211.5,291C 209.416,290.303 207.749,289.136 206.5,287.5 Z"/></g>
<g><path style="opacity:1" fill="#c62611" d="M 324.5,283.5 C 323.109,285.89 321.109,287.557 318.5,288.5C 314.695,289.267 310.861,289.933 307,290.5C 304.397,290.035 301.897,289.368 299.5,288.5C 299.281,287.325 299.614,286.325 300.5,285.5C 306.472,286.616 312.472,286.616 318.5,285.5C 318.5,284.5 318.5,283.5 318.5,282.5C 320.638,282.297 322.305,281.297 323.5,279.5C 324.429,280.689 324.762,282.022 324.5,283.5 Z"/></g>
<g><path style="opacity:1" fill="#b72d1a" d="M 256.5,296.5 C 257.626,295.142 257.626,293.808 256.5,292.5C 255.313,293.653 254.313,293.653 253.5,292.5C 262.132,288.192 266.798,281.192 267.5,271.5C 268.165,273.369 268.831,275.369 269.5,277.5C 270.086,277.291 270.586,276.957 271,276.5C 272.337,272.974 272.837,269.308 272.5,265.5C 269.545,266.159 266.545,266.492 263.5,266.5C 265.966,263.969 268.966,263.136 272.5,264C 274.769,275.86 271.436,285.86 262.5,294C 260.783,295.559 258.783,296.392 256.5,296.5 Z"/></g>
<g><path style="opacity:1" fill="#b33d2d" d="M 251.5,275.5 C 248.85,282.209 247.85,289.209 248.5,296.5C 251.167,296.5 253.833,296.5 256.5,296.5C 254.149,298.203 251.482,298.703 248.5,298C 246.49,293.391 245.99,288.558 247,283.5C 247.754,280.316 249.254,277.649 251.5,275.5 Z"/></g>
<g><path style="opacity:1" fill="#c82810" d="M 175.5,292.5 C 175.5,293.167 175.5,293.833 175.5,294.5C 175.569,302.382 176.569,310.049 178.5,317.5C 177.954,319.135 177.62,320.801 177.5,322.5C 176.5,322.5 175.5,322.5 174.5,322.5C 174.58,319.219 173.913,316.219 172.5,313.5C 172.5,312.167 172.5,310.833 172.5,309.5C 172.665,306.15 172.498,302.817 172,299.5C 171.303,295.141 170.137,291.141 168.5,287.5C 167.452,277.954 166.452,268.287 165.5,258.5C 165.833,257.5 166.167,256.5 166.5,255.5C 168.861,268.101 171.861,280.434 175.5,292.5 Z"/></g>
<g><path style="opacity:1" fill="#c2483c" d="M 189.5,292.5 C 191.054,296.567 191.72,300.9 191.5,305.5C 189.946,301.433 189.28,297.1 189.5,292.5 Z"/></g>
<g><path style="opacity:1" fill="#ae3526" d="M 168.5,287.5 C 170.137,291.141 171.303,295.141 172,299.5C 172.498,302.817 172.665,306.15 172.5,309.5C 170.373,302.434 169.04,295.101 168.5,287.5 Z"/></g>
<g><path style="opacity:1" fill="#c72b1a" d="M 183.5,258.5 C 186.344,269.558 188.344,280.891 189.5,292.5C 189.28,297.1 189.946,301.433 191.5,305.5C 193.132,314.773 194.465,324.106 195.5,333.5C 200.849,332.296 206.182,330.963 211.5,329.5C 215.054,330.055 218.387,331.221 221.5,333C 222.823,333.816 223.489,334.983 223.5,336.5C 221.362,336.019 219.695,334.852 218.5,333C 211.217,332.004 204.384,333.17 198,336.5C 197.833,336.833 197.667,337.167 197.5,337.5C 201.107,338.489 204.774,338.823 208.5,338.5C 198.649,342.918 188.982,342.418 179.5,337C 177.84,335.512 176.84,333.679 176.5,331.5C 177.931,331.881 178.764,332.881 179,334.5C 179.414,334.043 179.914,333.709 180.5,333.5C 183.956,338.106 188.623,339.606 194.5,338C 193.366,336.984 193.699,336.317 195.5,336C 194.672,335.085 193.672,334.419 192.5,334C 193.059,333.275 193.392,332.442 193.5,331.5C 192.818,327.862 192.318,324.195 192,320.5C 187.906,324.245 187.406,328.578 190.5,333.5C 189.767,334.087 188.767,334.087 187.5,333.5C 186.969,321.389 185.636,309.389 183.5,297.5C 184.496,297.586 185.329,297.252 186,296.5C 186.167,293.167 186.333,289.833 186.5,286.5C 185.072,277.315 184.072,267.982 183.5,258.5 Z"/></g>
<g><path style="opacity:1" fill="#b33423" d="M 287.5,302.5 C 283.51,301.616 280.677,302.949 279,306.5C 278.502,309.482 278.335,312.482 278.5,315.5C 275.466,310.574 276.132,306.074 280.5,302C 283.039,301.204 285.372,301.371 287.5,302.5 Z"/></g>
<g><path style="opacity:1" fill="#b93422" d="M 343.5,266.5 C 346.46,280.728 348.46,295.228 349.5,310C 349.621,313.782 348.954,317.282 347.5,320.5C 348.112,316.837 348.279,313.17 348,309.5C 347.25,308.874 346.416,308.374 345.5,308C 346.94,301.471 346.773,294.971 345,288.5C 344.333,289.167 343.667,289.833 343,290.5C 342.501,295.155 342.334,299.821 342.5,304.5C 340.942,294.331 339.609,283.998 338.5,273.5C 340.009,276.879 341.009,280.545 341.5,284.5C 342.192,285.025 342.692,285.692 343,286.5C 343.333,286.167 343.667,285.833 344,285.5C 344.348,279.161 344.182,272.827 343.5,266.5 Z"/></g>
<g><path style="opacity:1" fill="#cf3722" d="M 208.5,304.5 C 213.863,304.688 216.03,307.355 215,312.5C 210.309,316.987 207.142,315.987 205.5,309.5C 206.092,307.577 207.092,305.911 208.5,304.5 Z"/></g>
<g><path style="opacity:1" fill="#ca2712" d="M 287.5,302.5 C 290.932,303.599 292.932,305.933 293.5,309.5C 294.029,313.351 293.362,316.851 291.5,320C 289.833,320.667 288.167,320.667 286.5,320C 283.814,318.832 281.147,317.665 278.5,316.5C 278.5,316.167 278.5,315.833 278.5,315.5C 278.335,312.482 278.502,309.482 279,306.5C 280.677,302.949 283.51,301.616 287.5,302.5 Z"/></g>
<g><path style="opacity:1" fill="#ba3727" d="M 283.5,308.5 C 284.884,307.199 286.384,307.199 288,308.5C 289.252,311.014 289.752,313.68 289.5,316.5C 286.67,316.306 284.004,315.639 281.5,314.5C 281.205,312.265 281.539,310.265 282.5,308.5C 282.5,312.5 284.5,314.5 288.5,314.5C 288.676,310.808 287.009,308.808 283.5,308.5 Z"/></g>
<g><path style="opacity:1" fill="#ffe6e3" d="M 282.5,308.5 C 282.833,308.5 283.167,308.5 283.5,308.5C 287.009,308.808 288.676,310.808 288.5,314.5C 284.5,314.5 282.5,312.5 282.5,308.5 Z"/></g>
<g><path style="opacity:1" fill="#af3523" d="M 293.5,309.5 C 294.161,311.134 294.494,312.967 294.5,315C 294.4,317.302 293.733,319.302 292.5,321C 286.75,322.547 282.084,321.047 278.5,316.5C 281.147,317.665 283.814,318.832 286.5,320C 288.167,320.667 289.833,320.667 291.5,320C 293.362,316.851 294.029,313.351 293.5,309.5 Z"/></g>
<g><path style="opacity:1" fill="#c3311c" d="M 84.5,261.5 C 83.3836,264.925 81.5503,267.925 79,270.5C 78.1701,276.196 78.3368,281.863 79.5,287.5C 80.2652,286.388 81.2652,285.721 82.5,285.5C 77.9772,296.508 78.8105,307.175 85,317.5C 86.5843,318.861 88.4176,319.528 90.5,319.5C 89.8333,315.5 89.1667,311.5 88.5,307.5C 90.9032,307.393 92.7365,308.393 94,310.5C 95.1176,313.855 96.6176,317.022 98.5,320C 101.03,321.422 103.697,321.755 106.5,321C 107.059,320.275 107.392,319.442 107.5,318.5C 105.823,313.137 104.156,307.804 102.5,302.5C 103.978,302.238 105.311,302.571 106.5,303.5C 109.054,308.115 111.721,312.615 114.5,317C 122.613,318.552 126.946,315.219 127.5,307C 125.447,302.009 124.113,296.842 123.5,291.5C 124.675,291.281 125.675,291.614 126.5,292.5C 128.676,295.53 130.843,298.53 133,301.5C 134.987,300.846 136.32,299.513 137,297.5C 137.411,289.673 134.911,283.006 129.5,277.5C 131.315,278.63 133.315,279.296 135.5,279.5C 135.371,277.784 135.038,276.117 134.5,274.5C 138.68,277.867 141.513,282.2 143,287.5C 146.025,297.434 143.025,304.767 134,309.5C 131.839,319.801 125.339,324.801 114.5,324.5C 107.833,329.833 101.167,329.833 94.5,324.5C 87.4611,326.903 81.9611,324.903 78,318.5C 71.7809,307.44 71.1142,296.107 76,284.5C 74.4489,275.062 77.2822,267.395 84.5,261.5 Z"/></g>
<g><path style="opacity:1" fill="#bc3523" d="M 175.5,294.5 C 177.07,303.347 178.57,312.347 180,321.5C 180.984,325.98 182.817,329.98 185.5,333.5C 183.629,333.141 182.129,332.141 181,330.5C 178.279,322.357 176.779,322.69 176.5,331.5C 174.915,328.1 173.748,324.433 173,320.5C 172.503,318.19 172.337,315.857 172.5,313.5C 173.913,316.219 174.58,319.219 174.5,322.5C 175.5,322.5 176.5,322.5 177.5,322.5C 177.62,320.801 177.954,319.135 178.5,317.5C 176.569,310.049 175.569,302.382 175.5,294.5 Z"/></g>
<g><path style="opacity:1" fill="#b53b2c" d="M 338.5,321.5 C 336.489,322.893 334.155,323.56 331.5,323.5C 326.184,322.557 320.851,322.39 315.5,323C 314.295,324.376 312.962,325.542 311.5,326.5C 312.254,323.909 313.921,322.076 316.5,321C 321.616,320.291 326.616,320.791 331.5,322.5C 333.818,322.003 336.152,321.67 338.5,321.5 Z"/></g>
<g><path style="opacity:1" fill="#ba3027" d="M 268.5,328.5 C 263.528,327.182 258.528,325.849 253.5,324.5C 251.833,324.667 250.167,324.833 248.5,325C 245.601,327.729 242.934,330.562 240.5,333.5C 241.818,329.668 244.152,326.501 247.5,324C 255.363,322.289 262.363,323.789 268.5,328.5 Z"/></g>
<g><path style="opacity:1" fill="#c82812" d="M 347.5,320.5 C 347.34,322.153 346.674,323.486 345.5,324.5C 344.127,324.343 342.793,324.51 341.5,325C 341.833,325.333 342.167,325.667 342.5,326C 340.956,326.29 339.623,326.956 338.5,328C 337,328.167 335.5,328.333 334,328.5C 330.369,327.148 326.535,326.482 322.5,326.5C 320.5,326.833 318.5,327.167 316.5,327.5C 313.123,330.512 311.123,334.179 310.5,338.5C 309.5,338.5 308.5,338.5 307.5,338.5C 306.62,336.389 306.62,334.389 307.5,332.5C 308.34,330.147 309.674,328.147 311.5,326.5C 312.962,325.542 314.295,324.376 315.5,323C 320.851,322.39 326.184,322.557 331.5,323.5C 334.155,323.56 336.489,322.893 338.5,321.5C 342.093,316.505 343.427,310.838 342.5,304.5C 342.334,299.821 342.501,295.155 343,290.5C 343.667,289.833 344.333,289.167 345,288.5C 346.773,294.971 346.94,301.471 345.5,308C 346.416,308.374 347.25,308.874 348,309.5C 348.279,313.17 348.112,316.837 347.5,320.5 Z"/></g>
<g><path style="opacity:0.004" fill="#000000" d="M 8.5,329.5 C 9.83333,330.167 9.83333,330.167 8.5,329.5 Z"/></g>
<g><path style="opacity:1" fill="#bb3322" d="M 345.5,324.5 C 344.106,326.708 342.106,328.208 339.5,329C 332.409,329.491 325.409,329.157 318.5,328C 314.674,336.992 308.341,343.492 299.5,347.5C 295.818,347.335 292.152,347.501 288.5,348C 289.044,348.717 289.711,349.217 290.5,349.5C 291.5,349.833 292.167,350.5 292.5,351.5C 290.883,350.962 289.216,350.629 287.5,350.5C 287.5,349.167 287.5,347.833 287.5,346.5C 293.07,346.929 298.404,346.262 303.5,344.5C 303.5,343.5 303.5,342.5 303.5,341.5C 304.978,341.762 306.311,341.429 307.5,340.5C 306.975,339.808 306.308,339.308 305.5,339C 306.451,338.282 306.617,337.449 306,336.5C 303.981,339.712 301.147,341.378 297.5,341.5C 301.432,339.238 304.765,336.238 307.5,332.5C 306.62,334.389 306.62,336.389 307.5,338.5C 308.5,338.5 309.5,338.5 310.5,338.5C 311.123,334.179 313.123,330.512 316.5,327.5C 318.5,327.167 320.5,326.833 322.5,326.5C 326.535,326.482 330.369,327.148 334,328.5C 335.5,328.333 337,328.167 338.5,328C 339.623,326.956 340.956,326.29 342.5,326C 342.167,325.667 341.833,325.333 341.5,325C 342.793,324.51 344.127,324.343 345.5,324.5 Z"/></g>
<g><path style="opacity:1" fill="#d1210e" d="M 176.5,331.5 C 176.779,322.69 178.279,322.357 181,330.5C 182.129,332.141 183.629,333.141 185.5,333.5C 186.167,333.5 186.833,333.5 187.5,333.5C 188.767,334.087 189.767,334.087 190.5,333.5C 187.406,328.578 187.906,324.245 192,320.5C 192.318,324.195 192.818,327.862 193.5,331.5C 193.392,332.442 193.059,333.275 192.5,334C 193.672,334.419 194.672,335.085 195.5,336C 193.699,336.317 193.366,336.984 194.5,338C 188.623,339.606 183.956,338.106 180.5,333.5C 179.914,333.709 179.414,334.043 179,334.5C 178.764,332.881 177.931,331.881 176.5,331.5 Z"/></g>
<g><path style="opacity:1" fill="#cb2911" d="M 268.5,328.5 C 275.671,332.811 283.004,336.978 290.5,341C 292.81,341.497 295.143,341.663 297.5,341.5C 301.147,341.378 303.981,339.712 306,336.5C 306.617,337.449 306.451,338.282 305.5,339C 306.308,339.308 306.975,339.808 307.5,340.5C 306.311,341.429 304.978,341.762 303.5,341.5C 303.5,342.5 303.5,343.5 303.5,344.5C 298.404,346.262 293.07,346.929 287.5,346.5C 287.5,347.833 287.5,349.167 287.5,350.5C 289.216,350.629 290.883,350.962 292.5,351.5C 292.357,353.262 292.691,354.929 293.5,356.5C 295.48,356.303 297.48,356.97 299.5,358.5C 300.386,359.325 300.719,360.325 300.5,361.5C 303.766,361.433 305.266,363.099 305,366.5C 305.535,364.729 306.369,364.396 307.5,365.5C 306.184,368.384 305.184,371.384 304.5,374.5C 297.756,378.619 293.423,376.952 291.5,369.5C 289.278,369.822 287.444,369.155 286,367.5C 286.595,365.65 287.095,363.65 287.5,361.5C 285.323,361.586 283.323,362.253 281.5,363.5C 277.736,360.389 273.736,357.723 269.5,355.5C 264.707,351.879 260.04,348.046 255.5,344C 254.207,343.51 252.873,343.343 251.5,343.5C 249.516,342.844 247.516,342.178 245.5,341.5C 241.679,344.39 237.346,346.223 232.5,347C 227.519,361.814 219.185,374.314 207.5,384.5C 204.46,382.846 201.793,383.346 199.5,386C 199.957,386.414 200.291,386.914 200.5,387.5C 195.708,390.924 190.374,392.257 184.5,391.5C 184.5,392.5 184.5,393.5 184.5,394.5C 175.827,394.666 167.16,394.5 158.5,394C 156.899,393.727 155.399,393.227 154,392.5C 153.517,393.448 153.351,394.448 153.5,395.5C 152.127,395.657 150.793,395.49 149.5,395C 151.013,391.862 150.013,390.028 146.5,389.5C 148.088,385.207 149.421,380.874 150.5,376.5C 152.5,376.5 154.5,376.5 156.5,376.5C 156.768,374.901 156.434,373.568 155.5,372.5C 155.34,370.847 154.674,369.514 153.5,368.5C 152.833,367.833 152.167,367.167 151.5,366.5C 150.019,365.579 148.686,364.412 147.5,363C 149.502,358.506 148.168,355.672 143.5,354.5C 141.952,353.206 139.952,352.539 137.5,352.5C 134.571,352.793 131.737,353.46 129,354.5C 128.167,354.167 127.333,353.833 126.5,353.5C 127.524,352.148 128.524,350.815 129.5,349.5C 130.473,349.013 131.473,348.513 132.5,348C 129.97,346.578 127.303,346.245 124.5,347C 120.528,348.319 116.861,350.153 113.5,352.5C 112.5,352.5 111.5,352.5 110.5,352.5C 110.167,348.167 112.167,346.167 116.5,346.5C 116.5,345.5 116.5,344.5 116.5,343.5C 122.672,343.004 128.838,342.671 135,342.5C 136.845,343.952 138.345,345.785 139.5,348C 140.448,348.483 141.448,348.649 142.5,348.5C 145.689,349.514 148.522,351.18 151,353.5C 152.993,358.155 155.493,362.489 158.5,366.5C 159.393,371.136 160.727,375.636 162.5,380C 167.02,380.814 171.354,380.647 175.5,379.5C 183.028,379.701 190.028,377.868 196.5,374C 198.141,372.871 199.141,371.371 199.5,369.5C 206.763,361.979 212.263,353.313 216,343.5C 216.456,337.797 213.956,336.13 208.5,338.5C 204.774,338.823 201.107,338.489 197.5,337.5C 197.667,337.167 197.833,336.833 198,336.5C 204.384,333.17 211.217,332.004 218.5,333C 219.695,334.852 221.362,336.019 223.5,336.5C 226.592,339.355 230.259,340.188 234.5,339C 236.609,337.275 238.609,335.442 240.5,333.5C 242.934,330.562 245.601,327.729 248.5,325C 250.167,324.833 251.833,324.667 253.5,324.5C 258.528,325.849 263.528,327.182 268.5,328.5 Z"/></g>
<g><path style="opacity:1" fill="#c13e27" d="M 142.5,348.5 C 141.448,348.649 140.448,348.483 139.5,348C 138.345,345.785 136.845,343.952 135,342.5C 128.838,342.671 122.672,343.004 116.5,343.5C 118.803,341.745 121.47,340.578 124.5,340C 132.498,338.973 138.498,341.806 142.5,348.5 Z"/></g>
<g><path style="opacity:1" fill="#c0503e" d="M 410.5,342.5 C 399.956,340.272 389.956,341.939 380.5,347.5C 381.894,345.292 383.894,343.792 386.5,343C 393.22,339.965 400.22,338.965 407.5,340C 408.942,340.377 409.942,341.21 410.5,342.5 Z"/></g>
<g><path style="opacity:1" fill="#bc392c" d="M 251.5,343.5 C 252.873,343.343 254.207,343.51 255.5,344C 260.04,348.046 264.707,351.879 269.5,355.5C 263.148,351.993 257.148,347.993 251.5,343.5 Z"/></g>
<g><path style="opacity:1" fill="#ce7669" d="M 299.5,347.5 C 296.5,348.167 293.5,348.833 290.5,349.5C 289.711,349.217 289.044,348.717 288.5,348C 292.152,347.501 295.818,347.335 299.5,347.5 Z"/></g>
<g><path style="opacity:1" fill="#cb2a11" d="M 410.5,342.5 C 410.5,343.833 410.5,345.167 410.5,346.5C 403.468,346.17 396.468,346.503 389.5,347.5C 386.45,349.517 383.117,350.517 379.5,350.5C 379.762,351.978 379.429,353.311 378.5,354.5C 377.5,354.167 376.833,353.5 376.5,352.5C 377.857,350.814 379.19,349.148 380.5,347.5C 389.956,341.939 399.956,340.272 410.5,342.5 Z"/></g>
<g><path style="opacity:1" fill="#fdf8f5" d="M 143.5,354.5 C 148.156,359.368 147.156,362.535 140.5,364C 136.578,367.251 133.412,371.084 131,375.5C 130.333,379.833 130.333,384.167 131,388.5C 131.232,389.737 131.732,390.737 132.5,391.5C 132.5,392.167 132.5,392.833 132.5,393.5C 132.53,394.497 132.03,395.164 131,395.5C 129.775,395.138 128.609,394.638 127.5,394C 125.607,391.697 123.607,389.53 121.5,387.5C 120.28,387.887 119.613,388.72 119.5,390C 120.483,392.15 121.816,393.983 123.5,395.5C 124.288,398.621 126.288,400.288 129.5,400.5C 129.611,401.117 129.944,401.617 130.5,402C 128.527,402.495 126.527,402.662 124.5,402.5C 123.5,402.5 122.5,402.5 121.5,402.5C 119.342,400.007 116.676,398.34 113.5,397.5C 113.588,401.589 115.588,404.256 119.5,405.5C 121.956,407.868 124.956,408.868 128.5,408.5C 126.396,419.842 120.063,428.009 109.5,433C 101.277,435.138 96.7772,431.971 96,423.5C 95.0517,413.669 95.885,404.003 98.5,394.5C 106.024,377.472 117.69,363.972 133.5,354C 136.888,353.341 140.221,353.508 143.5,354.5 Z"/></g>
<g><path style="opacity:1" fill="#b83d2e" d="M 419.5,351.5 C 421.782,354.524 422.782,358.024 422.5,362C 422.64,365.15 421.973,367.983 420.5,370.5C 420.653,364.131 420.32,357.797 419.5,351.5 Z"/></g>
<g><path style="opacity:1" fill="#be3a24" d="M 143.5,354.5 C 148.168,355.672 149.502,358.506 147.5,363C 148.686,364.412 150.019,365.579 151.5,366.5C 148.941,366.198 146.607,366.532 144.5,367.5C 135.939,372.417 133.105,379.75 136,389.5C 136.662,390.984 137.496,392.317 138.5,393.5C 136.876,393.64 135.71,392.973 135,391.5C 134.829,386.136 134.329,380.802 133.5,375.5C 132.104,376.852 131.437,378.519 131.5,380.5C 132.246,384.132 132.579,387.798 132.5,391.5C 131.732,390.737 131.232,389.737 131,388.5C 130.333,384.167 130.333,379.833 131,375.5C 133.412,371.084 136.578,367.251 140.5,364C 147.156,362.535 148.156,359.368 143.5,354.5 Z"/></g>
<g><path style="opacity:1" fill="#fef1ec" d="M 129.5,349.5 C 113.895,358.772 102.561,371.772 95.5,388.5C 90.189,400.118 88.0223,412.451 89,425.5C 88.6174,424.944 88.1174,424.611 87.5,424.5C 86.0712,421.692 85.4045,418.692 85.5,415.5C 84.7169,405.896 85.8836,396.563 89,387.5C 95.0509,374.294 103.218,362.627 113.5,352.5C 116.861,350.153 120.528,348.319 124.5,347C 127.303,346.245 129.97,346.578 132.5,348C 131.473,348.513 130.473,349.013 129.5,349.5 Z"/></g>
<g><path style="opacity:1" fill="#c0311d" d="M 129.5,349.5 C 128.524,350.815 127.524,352.148 126.5,353.5C 127.333,353.833 128.167,354.167 129,354.5C 131.737,353.46 134.571,352.793 137.5,352.5C 139.952,352.539 141.952,353.206 143.5,354.5C 140.221,353.508 136.888,353.341 133.5,354C 117.69,363.972 106.024,377.472 98.5,394.5C 98.6602,392.801 98.4935,391.134 98,389.5C 97.3292,388.748 96.4959,388.414 95.5,388.5C 102.561,371.772 113.895,358.772 129.5,349.5 Z"/></g>
<g><path style="opacity:1" fill="#ea9d91" d="M 144.5,367.5 C 146.607,366.532 148.941,366.198 151.5,366.5C 152.167,367.167 152.833,367.833 153.5,368.5C 150.545,367.841 147.545,367.508 144.5,367.5 Z"/></g>
<g><path style="opacity:1" fill="#fdf7f3" d="M 144.5,367.5 C 147.545,367.508 150.545,367.841 153.5,368.5C 154.674,369.514 155.34,370.847 155.5,372.5C 155.719,373.675 155.386,374.675 154.5,375.5C 152.958,374.253 151.458,374.253 150,375.5C 148.667,378.833 147.333,382.167 146,385.5C 145.235,387.066 145.402,388.399 146.5,389.5C 150.559,393.206 149.559,395.206 143.5,395.5C 141.486,395.563 139.819,394.897 138.5,393.5C 137.496,392.317 136.662,390.984 136,389.5C 133.105,379.75 135.939,372.417 144.5,367.5 Z"/></g>
<g><path style="opacity:1" fill="#c4351f" d="M 116.5,343.5 C 116.5,344.5 116.5,345.5 116.5,346.5C 112.167,346.167 110.167,348.167 110.5,352.5C 111.5,352.5 112.5,352.5 113.5,352.5C 103.218,362.627 95.0509,374.294 89,387.5C 85.8836,396.563 84.7169,405.896 85.5,415.5C 83.4529,404.905 84.4529,394.572 88.5,384.5C 88.3333,383.833 88.1667,383.167 88,382.5C 84.8068,385.534 82.6401,389.201 81.5,393.5C 80.8165,393.863 80.1499,394.196 79.5,394.5C 80.038,392.883 80.3713,391.216 80.5,389.5C 86.4963,374.701 95.163,361.535 106.5,350C 109.464,347.19 112.798,345.024 116.5,343.5 Z"/></g>
<g><path style="opacity:1" fill="#b84534" d="M 199.5,369.5 C 199.141,371.371 198.141,372.871 196.5,374C 190.028,377.868 183.028,379.701 175.5,379.5C 184.378,378.398 192.378,375.064 199.5,369.5 Z"/></g>
<g><path style="opacity:1" fill="#c34e3a" d="M 155.5,372.5 C 156.434,373.568 156.768,374.901 156.5,376.5C 154.5,376.5 152.5,376.5 150.5,376.5C 149.421,380.874 148.088,385.207 146.5,389.5C 145.402,388.399 145.235,387.066 146,385.5C 147.333,382.167 148.667,378.833 150,375.5C 151.458,374.253 152.958,374.253 154.5,375.5C 155.386,374.675 155.719,373.675 155.5,372.5 Z"/></g>
<g><path style="opacity:1" fill="#be3a29" d="M 158.5,366.5 C 159.79,367.058 160.623,368.058 161,369.5C 161.889,372.687 162.722,375.853 163.5,379C 167.486,379.499 171.486,379.666 175.5,379.5C 171.354,380.647 167.02,380.814 162.5,380C 160.727,375.636 159.393,371.136 158.5,366.5 Z"/></g>
<g><path style="opacity:0.004" fill="#000000" d="M 5.5,392.5 C 6.83333,393.167 6.83333,393.167 5.5,392.5 Z"/></g>
<g><path style="opacity:1" fill="#c32f1a" d="M 410.5,342.5 C 415.189,343.856 418.189,346.856 419.5,351.5C 420.32,357.797 420.653,364.131 420.5,370.5C 417.955,382.592 413.455,393.926 407,404.5C 396.455,420.547 383.622,434.547 368.5,446.5C 364.669,447.961 360.669,448.961 356.5,449.5C 353.56,449.617 350.893,448.95 348.5,447.5C 337.614,444.774 331.447,437.774 330,426.5C 325.698,426.214 322.365,424.214 320,420.5C 318.216,414.561 318.049,408.561 319.5,402.5C 316.811,399.48 314.144,396.48 311.5,393.5C 313.258,393.877 314.925,394.544 316.5,395.5C 320.481,401.035 321.481,407.201 319.5,414C 319.878,415.635 320.544,417.135 321.5,418.5C 322.881,418 323.547,417 323.5,415.5C 322.925,412.135 322.258,408.802 321.5,405.5C 323.732,402.92 326.065,400.587 328.5,398.5C 328.443,396.116 328.777,393.782 329.5,391.5C 327.903,388.656 325.57,386.656 322.5,385.5C 323.64,383.922 324.14,382.256 324,380.5C 322,379.167 320,377.833 318,376.5C 317.819,378.674 318.652,380.507 320.5,382C 319,382.833 317.833,384 317,385.5C 316.101,383.484 314.767,381.817 313,380.5C 309.219,383.037 308.052,386.37 309.5,390.5C 296.734,378.059 283.4,366.392 269.5,355.5C 273.736,357.723 277.736,360.389 281.5,363.5C 283.323,362.253 285.323,361.586 287.5,361.5C 287.095,363.65 286.595,365.65 286,367.5C 287.444,369.155 289.278,369.822 291.5,369.5C 293.423,376.952 297.756,378.619 304.5,374.5C 305.184,371.384 306.184,368.384 307.5,365.5C 306.369,364.396 305.535,364.729 305,366.5C 305.266,363.099 303.766,361.433 300.5,361.5C 300.719,360.325 300.386,359.325 299.5,358.5C 297.48,356.97 295.48,356.303 293.5,356.5C 292.691,354.929 292.357,353.262 292.5,351.5C 306.223,362.048 319.223,373.548 331.5,386C 336.449,385.508 341.449,385.508 346.5,386C 348.536,386.454 350.37,387.287 352,388.5C 356.575,380.352 360.908,372.018 365,363.5C 369.02,356.981 374.187,351.648 380.5,347.5C 379.19,349.148 377.857,350.814 376.5,352.5C 376.833,353.5 377.5,354.167 378.5,354.5C 379.429,353.311 379.762,351.978 379.5,350.5C 383.117,350.517 386.45,349.517 389.5,347.5C 396.468,346.503 403.468,346.17 410.5,346.5C 410.5,345.167 410.5,343.833 410.5,342.5 Z"/></g>
<g><path style="opacity:1" fill="#fdf8f5" d="M 408.5,357.5 C 410.833,357.5 413.167,357.5 415.5,357.5C 414.259,374.324 408.759,389.657 399,403.5C 390.999,414.648 382.166,425.148 372.5,435C 369.5,437.333 366.5,439.667 363.5,442C 360.464,444.006 357.131,444.84 353.5,444.5C 353.337,442.143 353.503,439.81 354,437.5C 368.387,420.075 379.72,400.741 388,379.5C 393.316,370.686 400.149,363.353 408.5,357.5 Z"/></g>
<g><path style="opacity:1" fill="#fdf8f5" d="M 392.5,347.5 C 397.844,347.334 403.177,347.501 408.5,348C 413.783,350.9 413.116,352.234 406.5,352C 399.115,356.047 392.948,361.547 388,368.5C 380.778,381.128 374.112,394.128 368,407.5C 362.735,416.363 356.735,424.696 350,432.5C 348.589,434.65 347.755,436.984 347.5,439.5C 343.124,438.976 339.957,436.643 338,432.5C 335.751,421.812 338.584,412.812 346.5,405.5C 347.314,407.766 347.814,410.1 348,412.5C 348.368,413.91 349.201,414.91 350.5,415.5C 351.924,410.271 352.757,404.937 353,399.5C 353.29,397.956 353.956,396.623 355,395.5C 356.613,399.488 359.113,402.488 362.5,404.5C 361.483,397.195 361.317,389.861 362,382.5C 368.134,367.207 378.3,355.541 392.5,347.5 Z"/></g>
<g><path style="opacity:1" fill="#cc2810" d="M 328.5,398.5 C 326.065,400.587 323.732,402.92 321.5,405.5C 322.258,408.802 322.925,412.135 323.5,415.5C 323.547,417 322.881,418 321.5,418.5C 320.544,417.135 319.878,415.635 319.5,414C 321.481,407.201 320.481,401.035 316.5,395.5C 314.925,394.544 313.258,393.877 311.5,393.5C 310.833,392.5 310.167,391.5 309.5,390.5C 308.052,386.37 309.219,383.037 313,380.5C 314.767,381.817 316.101,383.484 317,385.5C 317.833,384 319,382.833 320.5,382C 318.652,380.507 317.819,378.674 318,376.5C 320,377.833 322,379.167 324,380.5C 324.14,382.256 323.64,383.922 322.5,385.5C 325.57,386.656 327.903,388.656 329.5,391.5C 328.777,393.782 328.443,396.116 328.5,398.5 Z"/></g>
<g><path style="opacity:1" fill="#c43b26" d="M 132.5,393.5 C 134.176,394.183 134.843,395.517 134.5,397.5C 129.89,397.596 129.556,398.596 133.5,400.5C 131.432,404.693 128.432,405.36 124.5,402.5C 126.527,402.662 128.527,402.495 130.5,402C 129.944,401.617 129.611,401.117 129.5,400.5C 127.54,398.844 125.54,397.177 123.5,395.5C 121.816,393.983 120.483,392.15 119.5,390C 119.613,388.72 120.28,387.887 121.5,387.5C 123.607,389.53 125.607,391.697 127.5,394C 128.609,394.638 129.775,395.138 131,395.5C 132.03,395.164 132.53,394.497 132.5,393.5 Z"/></g>
<g><path style="opacity:0.004" fill="#000000" d="M 473.5,398.5 C 474.833,399.167 474.833,399.167 473.5,398.5 Z"/></g>
<g><path style="opacity:1" fill="#fdf6f2" d="M 328.5,398.5 C 332.576,393.261 337.909,391.095 344.5,392C 347.974,393.734 348.474,396.234 346,399.5C 340.629,406.362 335.129,413.028 329.5,419.5C 325.839,418.194 324.172,415.527 324.5,411.5C 325.036,406.895 326.369,402.562 328.5,398.5 Z"/></g>
<g><path style="opacity:1" fill="#ca2a12" d="M 138.5,393.5 C 138.414,394.496 138.748,395.329 139.5,396C 142.5,396.333 145.5,396.667 148.5,397C 147.663,398.011 147.33,399.178 147.5,400.5C 143.677,398.929 139.677,397.929 135.5,397.5C 135.674,399.861 136.007,402.194 136.5,404.5C 134.897,404.312 133.563,404.812 132.5,406C 135.314,408.413 135.148,410.579 132,412.5C 130.731,411.095 130.231,409.429 130.5,407.5C 126.767,407.13 123.101,406.463 119.5,405.5C 118.326,403.632 118.993,402.632 121.5,402.5C 122.5,402.5 123.5,402.5 124.5,402.5C 128.432,405.36 131.432,404.693 133.5,400.5C 129.556,398.596 129.89,397.596 134.5,397.5C 134.843,395.517 134.176,394.183 132.5,393.5C 132.5,392.833 132.5,392.167 132.5,391.5C 132.579,387.798 132.246,384.132 131.5,380.5C 131.437,378.519 132.104,376.852 133.5,375.5C 134.329,380.802 134.829,386.136 135,391.5C 135.71,392.973 136.876,393.64 138.5,393.5 Z"/></g>
<g><path style="opacity:1" fill="#c82c14" d="M 85.5,415.5 C 85.4045,418.692 86.0712,421.692 87.5,424.5C 87.8212,426.048 88.8212,426.715 90.5,426.5C 90.3337,419.492 90.5004,412.492 91,405.5C 93.0212,400.016 94.5212,394.35 95.5,388.5C 96.4959,388.414 97.3292,388.748 98,389.5C 98.4935,391.134 98.6602,392.801 98.5,394.5C 97.3065,394.97 96.6399,395.97 96.5,397.5C 94.4299,408.112 94.0966,418.779 95.5,429.5C 96.2621,430.628 96.9288,431.795 97.5,433C 94.854,433.497 92.1873,433.664 89.5,433.5C 83.588,430.741 80.088,426.074 79,419.5C 78.3347,411.144 78.5013,402.811 79.5,394.5C 80.1499,394.196 80.8165,393.863 81.5,393.5C 82.6401,389.201 84.8068,385.534 88,382.5C 88.1667,383.167 88.3333,383.833 88.5,384.5C 84.4529,394.572 83.4529,404.905 85.5,415.5 Z"/></g>
<g><path style="opacity:1" fill="#b93b2b" d="M 95.5,388.5 C 94.5212,394.35 93.0212,400.016 91,405.5C 90.5004,412.492 90.3337,419.492 90.5,426.5C 88.8212,426.715 87.8212,426.048 87.5,424.5C 88.1174,424.611 88.6174,424.944 89,425.5C 88.0223,412.451 90.189,400.118 95.5,388.5 Z"/></g>
<g><path style="opacity:0.004" fill="#000000" d="M 24.5,412.5 C 25.8333,413.167 25.8333,413.167 24.5,412.5 Z"/></g>
<g><path style="opacity:1" fill="#c3351e" d="M 207.5,384.5 C 192.795,396.224 176.129,399.891 157.5,395.5C 154.72,397.103 152.054,398.937 149.5,401C 143.956,400.41 139.456,402.243 136,406.5C 133.362,420.63 125.862,431.297 113.5,438.5C 109.649,440.169 105.649,440.669 101.5,440C 97.3101,438.074 93.3101,435.907 89.5,433.5C 92.1873,433.664 94.854,433.497 97.5,433C 96.9288,431.795 96.2621,430.628 95.5,429.5C 94.0966,418.779 94.4299,408.112 96.5,397.5C 96.6399,395.97 97.3065,394.97 98.5,394.5C 95.885,404.003 95.0517,413.669 96,423.5C 96.7772,431.971 101.277,435.138 109.5,433C 120.063,428.009 126.396,419.842 128.5,408.5C 124.956,408.868 121.956,407.868 119.5,405.5C 123.101,406.463 126.767,407.13 130.5,407.5C 130.231,409.429 130.731,411.095 132,412.5C 135.148,410.579 135.314,408.413 132.5,406C 133.563,404.812 134.897,404.312 136.5,404.5C 136.007,402.194 135.674,399.861 135.5,397.5C 139.677,397.929 143.677,398.929 147.5,400.5C 147.33,399.178 147.663,398.011 148.5,397C 145.5,396.667 142.5,396.333 139.5,396C 138.748,395.329 138.414,394.496 138.5,393.5C 139.819,394.897 141.486,395.563 143.5,395.5C 149.559,395.206 150.559,393.206 146.5,389.5C 150.013,390.028 151.013,391.862 149.5,395C 150.793,395.49 152.127,395.657 153.5,395.5C 153.351,394.448 153.517,393.448 154,392.5C 155.399,393.227 156.899,393.727 158.5,394C 167.16,394.5 175.827,394.666 184.5,394.5C 184.5,393.5 184.5,392.5 184.5,391.5C 190.374,392.257 195.708,390.924 200.5,387.5C 200.291,386.914 199.957,386.414 199.5,386C 201.793,383.346 204.46,382.846 207.5,384.5 Z"/></g>
<g><path style="opacity:1" fill="#b73425" d="M 121.5,402.5 C 118.993,402.632 118.326,403.632 119.5,405.5C 115.588,404.256 113.588,401.589 113.5,397.5C 116.676,398.34 119.342,400.007 121.5,402.5 Z"/></g>
<g><path style="opacity:1" fill="#e08879" d="M 123.5,395.5 C 125.54,397.177 127.54,398.844 129.5,400.5C 126.288,400.288 124.288,398.621 123.5,395.5 Z"/></g>
<g><path style="opacity:0.004" fill="#000000" d="M 451.5,424.5 C 452.833,425.167 452.833,425.167 451.5,424.5 Z"/></g>
<g><path style="opacity:0.004" fill="#000000" d="M 471.5,427.5 C 472.833,428.167 472.833,428.167 471.5,427.5 Z"/></g>
<g><path style="opacity:1" fill="#fae3dc" d="M 80.5,389.5 C 80.3713,391.216 80.038,392.883 79.5,394.5C 78.5013,402.811 78.3347,411.144 79,419.5C 80.088,426.074 83.588,430.741 89.5,433.5C 93.3101,435.907 97.3101,438.074 101.5,440C 105.649,440.669 109.649,440.169 113.5,438.5C 113.611,439.117 113.944,439.617 114.5,440C 109.049,441.746 103.549,441.913 98,440.5C 96.9701,440.836 96.4701,441.503 96.5,442.5C 89.2018,436.869 82.5352,430.536 76.5,423.5C 75.8313,414.518 76.1647,405.518 77.5,396.5C 78.1324,393.898 79.1324,391.564 80.5,389.5 Z"/></g>
<g><path style="opacity:0.004" fill="#000000" d="M 16.5,440.5 C 17.8333,441.167 17.8333,441.167 16.5,440.5 Z"/></g>
<g><path style="opacity:0.004" fill="#000000" d="M 79.5,446.5 C 80.8333,447.167 80.8333,447.167 79.5,446.5 Z"/></g>
<g><path style="opacity:1" fill="#bb473b" d="M 368.5,446.5 C 365.029,449.23 361.029,450.897 356.5,451.5C 353.065,451.48 350.398,450.146 348.5,447.5C 350.893,448.95 353.56,449.617 356.5,449.5C 360.669,448.961 364.669,447.961 368.5,446.5 Z"/></g>
<g><path style="opacity:0.004" fill="#000000" d="M 28.5,472.5 C 29.8333,473.167 29.8333,473.167 28.5,472.5 Z"/></g>
<g><path style="opacity:0.004" fill="#000000" d="M 142.5,474.5 C 143.833,475.167 143.833,475.167 142.5,474.5 Z"/></g>
<g><path style="opacity:0.004" fill="#000000" d="M 93.5,485.5 C 94.8333,486.167 94.8333,486.167 93.5,485.5 Z"/></g>
<g><path style="opacity:0.004" fill="#000000" d="M 46.5,492.5 C 47.8333,493.167 47.8333,493.167 46.5,492.5 Z"/></g>
</svg>
